<svg xmlns="http://www.w3.org/2000/svg" viewBox="0 0 141.49 140.11"><defs><style>.cls-1{fill:none;stroke:#00ac7c;stroke-miterlimit:10;stroke-width:3px;}</style></defs><g id="Layer_2" data-name="Layer 2"><g id="Clothes_line" data-name="Clothes line"><path class="cls-1" d="M25.74,120.1c-13-6.4-19.06-18.4-21.95-31.16C-4.73,51.3,10.71,20.09,47,4.42c2.69-1.16,5.42-.57,8.28-2.11C58.8.42,63.13,1.62,63.2,8.13c.18,16.59,1.14,33.17,1.59,49.77C65,64.47,57.66,70.73,48,71.07c-15.11.53-30.27.6-45.32-1.62"/><path class="cls-1" d="M122.61,68.56c-17.46,1.79-35,.48-52.44.92a7.41,7.41,0,0,1-5.33-1.81"/><path class="cls-1" d="M37.29,10.79A424.14,424.14,0,0,1,60.4,62.34"/><path class="cls-1" d="M141.27,44.56c-9.71,1.44-11.48,3.85-14.38,13.29-3.41,11.12-3.39,22.91-7.71,33.86-4.06,10.29-8.36,20.14-17.9,26.62"/><path class="cls-1" d="M5.3,52.56C19,58.81,33.55,62.07,48,65.79a6.34,6.34,0,0,1,3.53,1.88"/><path class="cls-1" d="M15.07,31.23a467.85,467.85,0,0,1,41.77,32"/><path class="cls-1" d="M101.28,119.21c2.42,5.39,3.44,11.14-1.91,14.94-4.48,3.18-9.51,6.46-15.92,2.94-7-3.85-9.17-9.67-5.28-17S89.63,110,95.91,113.94c1.73,1.08,3,2.9,4.48,4.39"/><path class="cls-1" d="M25.74,121c-1.57,7.09.44,12.85,7.16,15.89,5.05,2.28,10.41,2.21,15.05-1.67,4.11-3.43,5-11.58,1.78-16-5.11-7-10.79-8.91-16.84-5.26-2.31,1.38-4.19,3.49-6.26,5.26"/><path class="cls-1" d="M53.29,130.77a59,59,0,0,0,22.21,0"/></g></g></svg>