<svg xmlns="http://www.w3.org/2000/svg" viewBox="0 0 141.63 181.51"><defs><style>.cls-1{fill:none;stroke:#00ac7c;stroke-miterlimit:10;stroke-width:3px;}</style></defs><g id="Layer_2" data-name="Layer 2"><g id="Clothes_line" data-name="Clothes line"><path class="cls-1" d="M56,160c-.65,7.91-8.23,11.58-10.91,19.31L1.87,155c5.06-13.11,13.66-23.82,21-35.2,6.39-10,15.09-14.24,27.94-16.21a51.15,51.15,0,0,0,35.5-23.13c14.18-22.67,28.81-45.07,43.27-67.57,3.46-5.39,3.5-5.37-2.08-11.14-4,1.36-6,4.83-8,8.13C105.33,33,91.41,56.31,77,79.28c-2.39,3.79-.55,6.82-.84,10.18"/><path class="cls-1" d="M27.75,117.68,74.11,145.9"/><path class="cls-1" d="M141.63,179.16H95.28"/><path class="cls-1" d="M33.8,110.63c13.1,8.39,26,17.22,39.49,24.85,2.95,1.67,4.82,3,3.69,5.3-5.9,11.92-2.38,23.6.16,35.35"/><path class="cls-1" d="M33.8,133.81c-4.53,10.12-11.09,19-17.13,28.21"/><path class="cls-1" d="M131.56,165.05c-6.63,2.15-13.45.49-20.16,1"/><path class="cls-1" d="M55,104.58c7.21,5.87,16.3,9.7,21,18.21,2,3.54,3.56,7.76,1.14,12"/><path class="cls-1" d="M64,160c-1.38,6.61,4.54,11.08,5,17.13"/><path class="cls-1" d="M71.09,98.53c.09,5.38,6.86,10.75,0,16.13"/><path class="cls-1" d="M56,169.08c3.27,8.57,10,11.17,18.07,8.81,4.39-1.29,7.36,2.11,11.16,1.27"/><path class="cls-1" d="M35.82,156c.31,5.8-4.85,8.66-7.06,13.1"/><path class="cls-1" d="M15.66,145.9c-.79,4.69-4.58,7.47-7.06,11.08"/></g></g></svg>