<svg xmlns="http://www.w3.org/2000/svg" viewBox="0 0 80.47 146.08"><defs><style>.cls-1{fill:#fff;}</style></defs><g id="Layer_2" data-name="Layer 2"><g id="Clothes_line" data-name="Clothes line"><path class="cls-1" d="M44.57,115.3v1.3q6.91,0,9.93,2.47c2,1.65,3,4.34,3,8.05A16.3,16.3,0,0,1,48,142.48a18.48,18.48,0,0,1-8,1.8q-10.86,0-18.4-10.13a38.17,38.17,0,0,1-5.91-12.07,50.89,50.89,0,0,1-2-14.54,50.2,50.2,0,0,1,8.44-28.7c.48-.72,1-1.38,1.48-2H60.13A53,53,0,0,1,67.19,92l1.29-.11-.61-22.31.49-15.12-1.29,0a50.21,50.21,0,0,1-2.34,8.16A20.65,20.65,0,0,1,61.44,68a16.81,16.81,0,0,1-1.89,2,16.57,16.57,0,0,1-3.38,2.38,19.17,19.17,0,0,1-2.16,1A32.45,32.45,0,0,1,42.7,75.06a23.85,23.85,0,0,1-10.32-1.88,11.88,11.88,0,0,1-3-2.11,12.46,12.46,0,0,1-2.56-3.43c-.07-.13-.16-.25-.23-.4A18.38,18.38,0,0,1,25,61.36q-.39-3.51-.39-11.22V37.25h3.2a23.19,23.19,0,0,1,6.87.85,9.94,9.94,0,0,1,4.39,2.64,13.37,13.37,0,0,1,2.73,4.5,31.35,31.35,0,0,1,1.49,7h1.29l.23-30.16L43.54,22a33.65,33.65,0,0,1-1.26,6.56,10.31,10.31,0,0,1-2.34,3.85,8.53,8.53,0,0,1-4.22,2.42,32.67,32.67,0,0,1-7.71.68H24.64V1.74H37.52a45.18,45.18,0,0,1,9.57.82,16.28,16.28,0,0,1,6.25,2.79,16.75,16.75,0,0,1,4.89,5.45,24.1,24.1,0,0,1,2.42,7.83l1.29-.06L61,0H.5V1.29a18.59,18.59,0,0,1,5.26.91A8.94,8.94,0,0,1,9.28,4.56a9.55,9.55,0,0,1,2.39,4.58,41.23,41.23,0,0,1,.64,8.53V59.14a41.23,41.23,0,0,1-.64,8.53,9.55,9.55,0,0,1-2.39,4.58A9.5,9.5,0,0,1,5.7,74.62a18.72,18.72,0,0,1-5.2.9v1.29H11.71A38.13,38.13,0,0,0,3.6,89.19,48.39,48.39,0,0,0,0,107.93a47.07,47.07,0,0,0,2,13.84A34,34,0,0,0,7.71,133a31.88,31.88,0,0,0,12.91,9.68,45.4,45.4,0,0,0,17.87,3.37,50.77,50.77,0,0,0,13.67-1.8,37.51,37.51,0,0,0,11.37-5.17,6,6,0,0,1,3.15-1.3,10.19,10.19,0,0,1,3.15.79l-.11-1.3q-.23-4.28-.23-6.3,0-7.36,1.07-9.84a5.86,5.86,0,0,1,3-3.18,23.19,23.19,0,0,1,7-1.38v-1.3Z"/></g></g></svg>