<svg xmlns="http://www.w3.org/2000/svg" viewBox="0 0 248.52 118.07"><defs><style>.cls-1{fill:none;stroke:#00ac7c;stroke-miterlimit:10;stroke-width:3px;}</style></defs><g id="Layer_2" data-name="Layer 2"><g id="Clothes_line" data-name="Clothes line"><path class="cls-1" d="M185.05,103.64q0-31.95,0-63.91c0-1.41-.24-2.9.58-4.16a1.33,1.33,0,0,0,.23-1.13c-1.82-6.83-.32-13.79-.82-20.66-.36-5.06-1.89-9.43-7-11.74a9,9,0,0,0-3.92-.54H89.32c-7.35,0-11.69,4.24-12,11.72,0,1.21,0,2.42,0,3.63q0,40.32,0,80.65c0,2.64.58,5.08,2.88,6.31,1.45.78,3.48.63,5.25.64,6.13.07,12.27,0,18.41,0"/><path class="cls-1" d="M238.07,104.48c1.68-.09,3.36-.1,5-.3A4,4,0,0,0,247,100c.06-9.2,0-18.41,0-27.62a4,4,0,0,0-.85-2.24C241.64,63.26,236,57.26,230.5,51.21c-1.68-1.84-2.8-4.27-5.27-5.33-.73-.31-1.67-1-2.2-.78-4.93,2.13-10.09.56-15.1,1.06a8.77,8.77,0,0,0-1.41.22c-2.65.68-3.59,1.63-3.6,4.24q-.06,7.25,0,14.51a4.11,4.11,0,0,0,4.45,4.46c10.79,0,21.58,0,32.38,0a8.11,8.11,0,0,0,4.18-1.42"/><path class="cls-1" d="M131.18,30.52c-2.47-.62-4.06-2.75-6.4-3.66-5.08-2-10-2-14.49,1.2-5.27,3.79-6.11,9.42-5,15.29a32.36,32.36,0,0,0,7.46,15.09c4.61,5.36,10.13,9.66,15.89,13.69,1.3.91,2.74,1.31,3.9.49,8.43-6,16.7-12.21,21.46-21.75a26.83,26.83,0,0,0,2.71-13.94c-.35-5.54-6.14-11.13-12.7-11.44-4.12-.2-7.58,1.48-10.87,3.66-.56.37-1,1-1.69,1.1"/><path class="cls-1" d="M0,39.87q29.58.35,59.16,0"/><path class="cls-1" d="M210.16,104.48c-3.25.73-6.51-.16-9.77,0-3.71.16-7.45.43-11.16.25-8.28-.38-16.56-.15-24.84-.22s-16.37,0-24.55,0c-2.8,0-5.62.82-8.38-.28"/><path class="cls-1" d="M59.18,58.85q-22.05.07-44.09.13c-1.68,0-3.35-.08-5-.13"/><path class="cls-1" d="M223.28,44.76C222.23,40.54,219,38,216,35.33c-.58-.5-1.81-.33-2.74-.33-7.81,0-15.63,0-23.44,0-1.21,0-2.42-.18-3.63-.27"/><path class="cls-1" d="M59.18,78.39c-12.84.15-25.67.38-38.51-.14"/><path class="cls-1" d="M131.18,104.48a23.63,23.63,0,0,0-1.36,3.36c-1.25,5-6.65,8.43-11.19,8.68-5.57.31-9.86-2.43-12.63-7.54s-1.07-9.28,1.83-13.08c3.35-4.39,8.09-6,13.59-4.25a12.11,12.11,0,0,1,8.88,9.77c.2,1,.66,1.83.88,2.78"/><path class="cls-1" d="M210.72,104.76c1.19,2.57,2.07,5.27,3.89,7.55,5.13,6.43,17.62,6.07,21.89-4.44,1.34-3.31.62-6.12-.45-9a12.11,12.11,0,0,0-7.76-7.23,12.57,12.57,0,0,0-16.19,8c-.53,1.59-.54,3.37-1.66,4.75"/></g></g></svg>