<svg xmlns="http://www.w3.org/2000/svg" viewBox="0 0 146.46 180.6"><defs><style>.cls-1{fill:none;stroke:#00ac7c;stroke-linecap:square;stroke-miterlimit:10;stroke-width:3px;}</style></defs><g id="Layer_2" data-name="Layer 2"><g id="Clothes_line" data-name="Clothes line"><path class="cls-1" d="M4,38.14c-.83,3.72-2.36,7.45-2.38,11.18q-.26,59.61-.06,119.22c0,3.31.72,6.63,1.17,10.56H145V1.5H2.27C2.86,13.72,3.43,25.31,4,36.9"/><path class="cls-1" d="M5.24,36.9c45.95,2.44,91.91.77,137.86,0"/><path class="cls-1" d="M82.24,17c-2.69-3.92-6-7.93-11.08-6C67.65,12.42,65.34,16,66,20.77c.55,4.07,2.22,5.79,6.32,6.28,6.9.83,8.6-3.63,9.94-8.78"/><path class="cls-1" d="M37.53,10.81c-5.12,1.58-5,5.79-5,10.27,3.4,7.11,8.65,7.23,15.8,2.83.91-7,.87-13.37-9.61-13.1"/><path class="cls-1" d="M104.6,10.81c-3.35,1.43-6.16,3.29-6.37,8.22a12.15,12.15,0,0,0,8.52,8.22c5-.73,6.8-4.47,9.15-7.24-1.46-5.66-3.2-10.36-10.06-9.2"/><path class="cls-1" d="M67.34,55.52C45.7,61,30.81,72.48,23.47,95.14,13,127.54,41.05,163.69,77.26,160.9c22.87-1.76,46-21.46,48.26-40.82,3.24-27.93-5.65-49.84-35.8-62.13-6.92-2.82-14-2.31-21.14-2.43"/><path class="cls-1" d="M69.82,70.43c-14.28,5.25-27.1,10.64-31.59,28.43-3.67,14.56.3,24.74,9.2,34.94,10.28,11.79,23.43,14,37.23,9.68,18.74-5.83,28.82-22.66,26.15-40.76-2.7-18.25-17.68-30.43-39.75-32.29"/></g></g></svg>