<svg xmlns="http://www.w3.org/2000/svg" viewBox="0 0 79.07 106.12"><defs><style>.cls-1,.cls-2{fill:#00ac7c;}.cls-2{opacity:0.47;}</style></defs><g id="Layer_2" data-name="Layer 2"><g id="Layer_2-2" data-name="Layer 2"><g id="Logo"><path class="cls-1" d="M5.85,106.12c-1.18-2.21-2.18-4.42-3.11-6.63-.49-1.1-.91-2.21-1.36-3.31S.53,94,.13,92.87A2.38,2.38,0,0,1,0,92c0-.28.08-.56.11-.83a5.84,5.84,0,0,0,0-.83V86.23l0-6.63L.1,53.07,0,26.54,0,13.28,1.25,10c.44-1.11.86-2.21,1.33-3.32C3.5,4.43,4.47,2.21,5.59,0,6.73,2.21,7.71,4.42,8.64,6.62c.47,1.11.9,2.21,1.35,3.32l1.26,3.31,0,13.27L11.35,53l.06,26.53,0,6.64v4.14a4.62,4.62,0,0,0,0,.83c0,.28.09.55.11.83a2.63,2.63,0,0,1-.08.83c-.4,1.1-.82,2.21-1.23,3.32s-.86,2.21-1.34,3.32C8,101.69,7,103.9,5.85,106.12Z"/><polygon class="cls-2" points="38.4 39.22 5.85 0.07 46.2 31.12 38.4 39.22"/><polygon class="cls-2" points="50.92 74.57 5.85 105.38 43.65 65.98 50.92 74.57"/><path class="cls-1" d="M79.07,0c-1.2,3-2.53,5.9-3.91,8.75-.68,1.43-1.4,2.82-2.1,4.23s-1.45,2.78-2.19,4.16a4.37,4.37,0,0,1-.7.89c-.27.26-.57.5-.85.76a8.73,8.73,0,0,0-.81.8l-.77.82-3.09,3.32-6.18,6.63L33.76,56.89V49.22L58.47,75.75,70.83,89,73,93.19c.7,1.41,1.42,2.8,2.11,4.23,1.38,2.84,2.73,5.72,4,8.7-2.88-1.45-5.66-3-8.39-4.57-1.38-.78-2.72-1.6-4.07-2.4l-4-2.46L50.24,83.42,25.53,56.89V49.22L50.24,22.69l6.18-6.63,3.09-3.31.77-.83c.26-.28.51-.56.74-.86s.45-.62.69-.9a4.71,4.71,0,0,1,.84-.77c1.32-.84,2.66-1.65,4-2.47s2.69-1.62,4.07-2.4C73.36,2.94,76.15,1.41,79.07,0Z"/></g></g></g></svg>