<svg xmlns="http://www.w3.org/2000/svg" viewBox="0 0 735.84 673.92"><defs><style>.cls-1{fill:#387c98;}.cls-2{fill:#aeb1b5;}.cls-3{fill:#5eb18d;}.cls-4{fill:#3e8753;}.cls-5{fill:#3b9f59;}.cls-6{fill:#aed8ea;}.cls-7{fill:#883e27;}.cls-8{fill:#fbfbfb;}.cls-9{fill:#26627a;}.cls-10{fill:#128290;}.cls-11{fill:#155e42;}.cls-12{fill:#d1d5da;}.cls-13{fill:#84c1cb;}.cls-14{fill:#cbe6f1;}.cls-15{fill:#2d9172;}.cls-16{fill:#449982;}.cls-17{fill:#7a4726;}.cls-18{fill:#316641;}.cls-19{fill:#170906;}.cls-20{fill:#cdb588;}.cls-21{fill:#96999e;}.cls-22{fill:#c2c0c2;}.cls-23{fill:#87502e;}.cls-24{fill:#216150;}.cls-25{fill:#0f707b;}.cls-26{fill:#89c9e9;}.cls-27{fill:#e0cfc4;}.cls-28{fill:#ead3a5;}</style></defs><g id="Layer_2" data-name="Layer 2"><g id="Layer_2-2" data-name="Layer 2"><path class="cls-1" d="M587.19,532.94l5.56.94,2.89.2c21.62,3.09,43.36,5.55,64.83,9.48,16.11,3,32,7.51,47.76,11.94,6,1.7,11.65,5,17.36,7.7a22,22,0,0,1,5.17,3.63c6.86,6.2,6.89,12.74-.62,18.28a74.17,74.17,0,0,1-15.39,8.43c-19,8-39,12.13-59.19,15.4-23.66,3.82-47.42,7.11-71.24,9.71-20.57,2.25-41.28,3.27-61.94,4.7-5,.35-8.87.75-12.14,6.08-2.86,4.66-8.5,8.06-13.56,10.82-16,8.76-33.67,13.15-51.38,16.87-32.24,6.77-64.87,10.76-97.74,13.13-36,2.6-72,4.44-108,3.34-32.92-1-65.87-2.62-98.67-5.49-33.69-3-67.19-8-99.69-17.93C29.52,646.58,18,642.58,8.07,635a24.47,24.47,0,0,1-4.6-4.31c-4.8-6.23-4.73-12.24.9-17.69a56.41,56.41,0,0,1,12.5-9.07c13.36-7.14,28-10.93,42.55-14.57,2.25-.56,4.47-1.19,8.72-2.33-2.43-1.54-4-2.2-5.17-3.35q-8.62-8.92.88-16.82c8.15-6.77,17.95-10.16,27.87-13.18,6.72-2.06,13.56-3.73,20.35-5.58,3.28,8.78,6.06,17.78,11.48,25.59q.8,9.89,1.58,19.75c-1.77.54-3.57,1-5.32,1.63-6.13,2.2-12.4,4.1-18.32,6.78-5.12,2.32-5,6.67-.69,10.27,6.26,5.22,14.12,6.54,21.46,8a345.48,345.48,0,0,0,61.7,7.17c25.82.48,51.67-.72,77.51-1.19a10.85,10.85,0,0,0,1.4-.1c9.67-1.37,19.38-2.47,29-4.19,10.33-1.85,20.57-4.13,29.88-9.44a13.19,13.19,0,0,1,7.19-1.39c7.18.55,14.33,2.28,21.48,2.26,18.31,0,36.61-.76,54.9-1.36,1.21,0,2.38-1.44,3.56-2.2h10.47c-.72-3.13-1.4-6.06-2.07-9l-.14-2.72q-.66-2.88-1.31-5.76c-.05-.9-.09-1.81-.13-2.72-.41-1.45-.82-2.91-1.22-4.36-.1-1.37-.19-2.73-.28-4.1-.4-1.46-.79-2.92-1.18-4.38-.09-1.37-.17-2.74-.25-4.1l-1.25-4.37c0-.92,0-1.83-.05-2.74l.39-2.81L437.05,558c.15,3,.15,6.1.47,9.12,1.29,12,2.67,24,4,35.94l-5.95,4.78c-3.45.47-7,.64-10.31,1.55-1.39.38-2.34,2.33-3.49,3.57,1.31,1.1,2.48,2.82,4,3.16a136.5,136.5,0,0,0,15.42,2.66c7,.79,13.95,1.37,20.95,1.68,6.35.27,12.73.21,19.09,0,13.83-.38,27.67-.7,41.48-1.5A104.88,104.88,0,0,0,539.84,616c1.53-.35,2.68-2.31,4.71-4.19-8-3.67-14.61-7-22.4-4.44l-25.47-5.24a12.33,12.33,0,0,0,1.28-3.26c1-12.56,2-25.12,2.91-37.69.66-9.57,1.11-19.15,1.65-28.73L515,527.15l46.76,3.5,5.6.5a57.21,57.21,0,0,0,6.12.43c3.94-.13,5.2,2,5.08,5.52a2.41,2.41,0,0,0-.34,1,28.47,28.47,0,0,0-3.28,3.11,58.49,58.49,0,0,0-3.24,5c-1.86-.2-3.73-.34-5.58-.6-9-1.3-14.67,2.93-18.23,10.91-2.18,4.9-4.72,9.64-7.11,14.45-6.52.1-11.42,4-16.3,7.51-3.43,2.46-3.71,9.26-.36,11.95,4.27,3.43,9,6.8,14.1,8.6,10.77,3.79,21.94,6.23,33.54,5.92,7.3-.19,14.63.35,21.9-.13a242.41,242.41,0,0,0,25.64-3c8.1-1.39,15.91-4.15,22.21-9.72,5-4.44,6.54-7.11,1-13.42s-13.41-7.07-20.11-10.57c-2.14-4.17-4.18-8.4-6.49-12.48-.71-1.27-2.15-2.13-3.26-3.18l-.42-1.4c-.33-.8-.44-1.85-1-2.36-5.59-4.84-12.13-3.09-18.49-2.51-1-1.68-1.87-3.42-3-5a30.75,30.75,0,0,0-2.92-3.13C587,536.37,587.08,534.65,587.19,532.94Z"/><path class="cls-1" d="M707.23,657.26c-2.82,1.47-5.49,3.54-8.49,4.29-8,2-16,4.1-24.09,4.88-25.84,2.5-51.67,2.58-77.14-3.55a36.37,36.37,0,0,1-9.2-3.42c-3.76-2.11-3.85-5.85.1-7.53a77.79,77.79,0,0,1,18.07-5.59c28.32-4.38,56.67-4.47,84.9,1.1a42.8,42.8,0,0,1,9.4,2.89c2.39,1.08,4.4,3,6.59,4.57C707.32,655.68,707.28,656.47,707.23,657.26Z"/><path class="cls-2" d="M587.18,348.88q0,54.6,0,109.2c0,1.87.17,3.75.26,5.62l-.24,69.24c-.11,1.71-.23,3.43-.34,5.15h-5.48L580.24,537q.06-93.37.1-186.75c.39-.46.79-.91,1.18-1.36Z"/><path class="cls-3" d="M113.69,535.41q-1.31-2.83-2.63-5.67c1-3.2,2.08-6.4,3-9.4l4.86,4,1.51,1.64,1.2,1.14,1.64,1.15c2.12,3.35,5.43,3.18,8.76,3l3.87.07,10,1.46c9.63,0,19.26.08,28.88-.08,2.16,0,4.29-.93,6.44-1.44l12.95-1.67,13.37-3.78L209.13,537c-2,.49-4,1.11-6.07,1.46-8.45,1.42-16.87,3.34-25.39,4a222,222,0,0,1-27.42,0c-7.63-.38-15.21-1.67-22.81-2.56q-.6,0-1.2,0l-7.4-2.77Z"/><path class="cls-1" d="M106.3,530c-3.93,5.72-9.56,5.68-14.43,6.44-17.31,2.71-34.68,2.79-51.9-.87-3.48-.73-6.73-2.55-10.61-4.08,4.34-6,10.07-6.17,15.16-7a157.56,157.56,0,0,1,47.79,0C97.14,525.25,102,526.27,106.3,530Z"/><path class="cls-4" d="M113.69,535.41l5.15,1.66.22,4.17c-.62,8.17-.15,16.08,5.59,22.69v0L126,565.5c2.86,3.26,5.49,6.78,8.66,9.72,2.49,2.32,5.65,3.93,8.51,5.86q0,3.36.1,6.74L129,579.43l-5.42-5.76c-5.42-7.81-8.2-16.81-11.48-25.59Z"/><path class="cls-5" d="M119,524.35l-4.86-4c-1,3-2,6.2-3,9.4-.77-10.23,0-12,9.43-14.83a109.4,109.4,0,0,1,19.86-4.16c8.59-1,17.28-1.05,25.93-1.38,2-.08,4.42-.7,5.21,2.22-.71,5.07-4.78,1.87-7.12,2.91-12.39.35-24.83.24-36.8,4.21C123.53,518.81,119.8,519.36,119,524.35Z"/><path class="cls-5" d="M199.54,512.63c2.66-.15,6,2.82,7.75-1.57l.25,6.38c-3.55.09-7.16-2-10.64.32L194,514.38c-6.34,2.74-12.42,1.16-18.45,0-.59-.11-.88-1.77-1.31-2.71,3.84-3.88,8.51-.37,12.66-1.42l11.33,1.44-.13-.1Z"/><path class="cls-6" d="M174.25,511.65c.43.94.72,2.6,1.31,2.71,6,1.18,12.11,2.76,18.45,0l2.89,3.38c2.56,4.74,2.56,4.74-2.91,8-4.27-1.45-8.65-2.76-9.3-8.68-6.46,1.45-12.44-2.22-18.66-.09-.25.08-1.1-1.59-1.66-2.44,2.34-1,6.41,2.16,7.12-2.91Z"/><path class="cls-7" d="M646.41,327.72l5.06,2.14q3.12,6.08-2,10.54c-3.17,0-6.66.88-8.52-2.94C641,333.23,643.94,330.61,646.41,327.72Z"/><path class="cls-8" d="M198.24,511.67l-11.33-1.44c0-2.69.05-5.37.07-8.05l2.71-3.3,1.28.77-1.6,4.48Z"/><path class="cls-2" d="M595.64,534.08l-2.89-.2Z"/><path class="cls-9" d="M408.86,609.68c-1.18.76-2.35,2.16-3.56,2.2-18.29.6-36.59,1.31-54.9,1.36-7.15,0-14.3-1.71-21.48-2.26a13.19,13.19,0,0,0-7.19,1.39c-9.31,5.31-19.55,7.59-29.88,9.44-9.6,1.72-19.31,2.82-29,4.19a10.85,10.85,0,0,1-1.4.1c-25.84.47-51.69,1.67-77.51,1.19a345.48,345.48,0,0,1-61.7-7.17c-7.34-1.48-15.2-2.8-21.46-8-4.31-3.6-4.43-8,.69-10.27,5.92-2.68,12.19-4.58,18.32-6.78,1.75-.62,3.55-1.09,5.32-1.63a58,58,0,0,1,1.48,6.69c.76,7.23,4.88,11.43,11.76,12.8,6.59,1.31,13.27,2.86,19.94,3,8.83.23,17.7-.76,26.55-1.22,1.93.49,3.86,1.39,5.79,1.41,13.32.12,26.64.06,39.95,0a38.28,38.28,0,0,0,4.37-.54V603.45l2.88-15.52c8.82.45,17.63,1,26.45,1.29,1.51,0,3.05-.86,4.58-1.33q.76,7.5,1.52,15c-3.72,3.46-9.83,5.7-6.49,12.93h31.3c2.9-7.15-2.71-9.35-6.47-12.56q.72-5.55,1.46-11.11c11.47,3.05,23.83,3.46,33.61,11.55,1.1.91,3,1.14,4.55,1.17,3.49.08,7-.17,10.5-.28,1.8,1.73,3.41,4.63,5.45,5,6.35,1.06,12.9,2.05,19.22-.57,2.5.45,5,1.33,7.51,1.26,7-.18,14-.74,21-1.16h2.78a59.71,59.71,0,0,0,6.48.9C403.81,610.08,406.34,609.8,408.86,609.68Z"/><path class="cls-10" d="M437.05,558c-2.21-17.15-4.46-34.28-6.59-51.43-.37-3-.22-6.1-.31-9.15l28.69,1.89c-.06,4-.47,8-.11,11.93,1.21,13.23,3.42,26.42,1.3,39.75-1.53,10.48-3.08,20.95-4.56,31.43-.93,6.59-1.76,13.2-2.63,19.8-3.58,2.88-7.48,1.36-11.31.84-1.34-12-2.72-24-4-35.94C437.2,564.05,437.2,561,437.05,558Z"/><path class="cls-9" d="M622.44,568.16c6.7,3.5,14.63,4.3,20.11,10.57s4,9-1,13.42c-6.3,5.57-14.11,8.33-22.21,9.72a242.41,242.41,0,0,1-25.64,3c-7.27.48-14.6-.06-21.9.13-11.6.31-22.77-2.13-33.54-5.92-5.1-1.8-9.83-5.17-14.1-8.6-3.35-2.69-3.07-9.49.36-11.95,4.88-3.49,9.78-7.41,16.3-7.51q-3.07,7.81-6.17,15.65a.76.76,0,0,0,.1.89l.09,1.46a6.13,6.13,0,0,0,1.36.33c29.53.05,59.06.12,88.59,0,1.7,0,3.39-1.68,5.09-2.58l-1.57-3.13.11,0Q625.42,575.85,622.44,568.16Z"/><path class="cls-8" d="M515,527.15a94,94,0,0,1,7.63-5.8A234.56,234.56,0,0,0,557.8,495c2.73-2.49,5.45-5,8.17-7.5,3.57-3.37,7.39-6.53,10.61-10.21a10.41,10.41,0,0,0,2-6.34q.12-60.35,0-120.69h1.78q0,93.38-.1,186.75l-1.67.07c.12-3.51-1.14-5.65-5.08-5.52a57.21,57.21,0,0,1-6.12-.43l-5.6-.5Z"/><path class="cls-5" d="M184.86,614.73c-8.85.46-17.72,1.45-26.55,1.22-6.67-.18-13.35-1.73-19.94-3-6.88-1.37-11-5.57-11.76-12.8a58,58,0,0,0-1.48-6.69q-.8-9.87-1.58-19.75l5.42,5.76c-.35.3-1,.62-1,.88.78,7.59,1.57,15.18,2.54,22.75a4.48,4.48,0,0,0,1.88,2.78,34.93,34.93,0,0,0,26.76,5.43c-1.65-6.16-3.2-11.91-4.75-17.67,8-.48,16.07-.74,24.06-1.55,4.09-.41,8.23-1.57,10.24-5.95,6.58-1.56,10.26-7.11,15.13-11l-1,11.45q-1.48,9.39-3,18.8a70.79,70.79,0,0,1-8.55,2.33C187.05,608.28,184.6,610.16,184.86,614.73Z"/><path class="cls-9" d="M522.15,607.39c7.79-2.59,14.38.77,22.4,4.44-2,1.88-3.18,3.84-4.71,4.19A104.88,104.88,0,0,1,522.68,619c-13.81.8-27.65,1.12-41.48,1.5-6.36.17-12.74.23-19.09,0-7-.31-14-.89-20.95-1.68a136.5,136.5,0,0,1-15.42-2.66c-1.48-.34-2.65-2.06-4-3.16,1.15-1.24,2.1-3.19,3.49-3.57,3.33-.91,6.86-1.08,10.31-1.55.17,2.23.34,4.46.51,6.75h23.05c2-4.16,0-6.92-2.31-9.6l25.55-1.33,1,5.44c.25,1.79.49,3.57.74,5.39h40.73C525.27,611.24,526.35,608.22,522.15,607.39Z"/><path class="cls-10" d="M505.38,496.25q-1.42,18.12-2.86,36.22c-.54,9.58-1,19.16-1.65,28.73C500,573.77,499,586.33,498,598.89a12.33,12.33,0,0,1-1.28,3.26l-3.53,1.47c-2.74.08-3.84-1.35-3.55-4,.43-3.93,1.33-7.86,1.32-11.78,0-15.71,1.28-31.3,2.72-46.93,1.28-14,1.1-28.11,1.56-42.18q.68-.06,1.35-.06l1.51-1.29Z"/><path class="cls-11" d="M612.27,551.1l.42,1.4q-1.47,7.1-3,14.17h-55c-.83-4.71-1.66-9.43-2.7-15.32C572.53,550.84,592.41,551.3,612.27,551.1Z"/><path class="cls-6" d="M394.81,609.09H392c-.59-.88-1-2.26-1.79-2.56-9.29-3.47-12-8.16-9.72-17.34a13.61,13.61,0,0,0,.1-2.79,2.21,2.21,0,0,1,.43-1.19l2.42-1.63a3.9,3.9,0,0,1,.25-1.31c.38,0,.75,0,1.13,0,2.77,0,4.14-1.47,4.45-4.11,2.79-.16,2.69-2.29,2.88-4.23,3.81-1,3.87-4.18,4.14-7.23l1.3-2.84c1.37-5.81,3-6.5,10.83-4.71,1.36,1.94-1.05,5.63,3,6.27,0,.91,0,1.82.05,2.74-1.88,2.11-1.64,3.61,1.25,4.37.08,1.36.16,2.73.25,4.1-2,2.1-1.76,3.6,1.18,4.38.09,1.37.18,2.73.28,4.1-2.12,2.16-1.81,3.64,1.22,4.36,0,.91.08,1.82.13,2.72-1.56,2.38-2.47,4.6,1.31,5.76l.14,2.72c-.61,1.66-.88,3.6-1.94,4.88-.88,1-3.05,3.18-3.61-.62-.88-6.84-1.81-13.67-2.61-20.52-.3-2.52.16-6-3.15-6.07-3.74-.07-8.57-2.75-11.08,2.73a2.58,2.58,0,0,0,0,1.14l0,.08c-4.9,2.3-9.62,4.75-9.47,11.28v2.82c1.08,3.39,2.21,6.73,6.6,7l3,1.61Z"/><path class="cls-3" d="M612.27,551.1c-19.86.2-39.74-.26-60.23.26,1,5.89,1.87,10.61,2.7,15.32-1.09.87-2.52,1.52-3.22,2.63-4.43,7-10.76,12-16.9,17.31q3.09-7.83,6.17-15.65c2.39-4.81,4.93-9.55,7.11-14.45,3.56-8,9.19-12.21,18.23-10.91,1.85.26,3.72.4,5.58.6.51.67,1,1.92,1.53,1.94q9,.21,18,0c.53,0,1-1.25,1.55-1.92,6.36-.58,12.9-2.33,18.49,2.51C611.83,549.25,611.94,550.3,612.27,551.1Z"/><path class="cls-12" d="M493.15,603.62l3.53-1.47,25.47,5.24c4.2.83,3.12,3.85,2.74,7.05H484.16c-.25-1.82-.49-3.6-.74-5.39,0-1.91,0-3.83,0-5.74C486.64,603.16,489.78,607,493.15,603.62Z"/><path class="cls-12" d="M456.83,604.94c2.32,2.68,4.31,5.44,2.31,9.6H436.09c-.17-2.29-.34-4.52-.51-6.75l5.95-4.78c3.83.52,7.73,2,11.31-.84Z"/><path class="cls-3" d="M609.74,566.67q1.49-7.08,3-14.17c1.11,1,2.55,1.91,3.26,3.18,2.31,4.08,4.35,8.31,6.49,12.48q3,7.7,5.95,15.37C619.73,580.61,616.74,571.43,609.74,566.67Z"/><path class="cls-11" d="M592.75,546.23c-.52.67-1,1.91-1.55,1.92q-9,.21-18,0c-.53,0-1-1.27-1.53-1.94a58.49,58.49,0,0,1,3.24-5,28.47,28.47,0,0,1,3.28-3.11l3.14-.07h5.48a30.75,30.75,0,0,1,2.92,3.13C590.88,542.81,591.77,544.55,592.75,546.23Z"/><path class="cls-13" d="M411.71,605c.56,3.8,2.73,1.67,3.61.62,1.06-1.28,1.33-3.22,1.94-4.88.67,2.93,1.35,5.86,2.07,9H408.86c-2.52.12-5.05.4-7.57.31a59.71,59.71,0,0,1-6.48-.9L395,605Z"/><path class="cls-13" d="M411.45,565.44c-4.05-.64-1.64-4.33-3-6.27-7.86-1.79-9.46-1.1-10.83,4.71l-1.44-8,14.21-.34,1.45,7.14Z"/><path class="cls-13" d="M417.12,598c-3.78-1.16-2.87-3.38-1.31-5.76Q416.46,595.09,417.12,598Z"/><path class="cls-13" d="M412.75,572.55c-2.89-.76-3.13-2.26-1.25-4.37Z"/><path class="cls-13" d="M415.68,589.49c-3-.72-3.34-2.2-1.22-4.36Z"/><path class="cls-13" d="M414.18,581c-2.94-.78-3.19-2.28-1.18-4.38C413.39,578.11,413.78,579.57,414.18,581Z"/><path class="cls-14" d="M561.77,530.65l5.6.5Z"/><path class="cls-14" d="M581.37,538.08l-3.14.07a2.41,2.41,0,0,1,.34-1l1.67-.07Z"/><path class="cls-15" d="M270.4,602.88q-.76-7.49-1.52-15c-1.43-10.1-2.78-20.22-4.31-30.31-.62-4.05-1.62-8.05-2.44-12.07,0-5.62-.33-11.26,0-16.86.63-10,1.75-20,2.48-30.07a34.86,34.86,0,0,0-.44-8.41c-3.14-17.94-6.19-35.9-9.81-53.75-.72-3.56.61-8.21-3.6-10.72.28-1.81.64-3.62.82-5.44.15-1.62.82-4,0-4.75-3.31-3.07-2.46-6.84-2.45-10.47,0-3.46-1.31-5.32-5-5.25-4,.08-8-.08-12,0-3.29.11-5.17,2.12-5.62,5.25-.62,4.38-1.16,8.78-1.44,13.18-.58,9.34-1.15,18.68-1.41,28-.58,21.58-1,43.18-1.45,64.76,0,1.18,0,2.36,0,3.54.92,14.44,1.91,28.88,2.78,43.33.57,9.57.32,19.25,1.68,28.7.92,6.38,1.6,12.43-.29,18.62l-12.56-2.79-.29-16.07c-.43-4.38-.76-8.79-1.33-13.16-.35-2.71-1.06-5.38-1.62-8.08.42-5.59,1-11.2-2.1-16.34l.55-11.86-1.53-11.16-.06-8.35-.25-6.38c-1.18-15.66-2.25-31.33-3.56-47-1.61-19.37-3.9-38.7-5-58.09-.82-14.27-.2-28.62-.22-42.94,3.37.23,2.34,2.82,2.56,4.76.67,5.8,1.37,11.59,2.21,18.69,1.23-1.85,1.85-2.35,1.88-2.88.56-9.33,1-18.66,1.6-28a82.4,82.4,0,0,1,1.37-8.17l4.22,0c.25,4.06,3.4,2.44,5.52,2.82v2.86c-.41,6.08-1,12.14-1.16,18.22-.07,1.9.76,3.84,1.18,5.75l.12,2.8-1.47,2.91,0,1.4.06,4.23c-2.65,2.51-.37,2.55,1.42,2.83,9.37,1.42,11-4.09,9.42-12.22a33.49,33.49,0,0,1-.89-6.18c-.08-8.45,0-16.9,0-25.35l2.78-1.43c4.55.44,9.1.94,13.67,1.32,5.94.5,11.9.88,17.84,1.36,2.08.17,3.74-.11,3.94-2.65.75-1.77,1.51-3.55,1.88-4.41,3-3.16,7.43,1.12,9.32-3.48L279,338c2.23.32,4.47.68,6.72.95,5.7.71,11.43-1.74,17.14.11.55,2.18,1.57,4.36,1.57,6.54-.05,29.65,0,59.31-.47,89-.37,21.38-1.18,42.77-2.58,64.1-.9,13.79-3.22,27.48-4.88,41.21-.68,5.58-1.28,11.17-1.92,16.76q-2.18,17.75-4.36,35.5-.74,5.55-1.46,11.11l-9.83,4.44Z"/><path class="cls-16" d="M218,182c2.36-3.36,5.67-4.63,9.68-4.39,3.48.21,7,.37,10.45.54l-.06.66c-5.58,2.27-10.85,5-14.56,10l-1.37,1.59v0c-9.43,10.5-9.83,23.56-11.19,36.67h46.56c-.78-14.52,1.64-27.47,8.66-39.34l-.05,0,1.47-1.5-.1.09,2-1.5a.72.72,0,0,0,.84-.68l1.5-2.13-.05.06c6-4,12.69-4.84,19.66-4.69l4.44-.35,2.27.8-12.49,8c-2,1.59-4.3,2.89-5.86,4.81-8.63,10.68-10,23.18-9.28,36.38h6.92l3.86,1c-3.18,22.73-6.27,45-9.42,67.26a10.61,10.61,0,0,0,2.85,9.58c3.68,3.92,6.8,8.35,10.17,12.56-6.43,2.81-13.3,2.61-20.08,3-.31-1.75-.62-3.5-.95-5.39l-24.79,3.06c-2-4.22-4.84-6.45-9.44-6.3-1.55.05-3.14-1.64-4.72-2.54l.71-14.18c3.51,0,7-.1,10.54.08,3.69.19,6.62-1.17,9.77-3,10.39-6.18,14.67-15.72,15.85-27.13.38-3.67,3-7.68-1.21-10.87a1.81,1.81,0,0,1-.22-1.27V235.68h-53.7c.47-7,1.06-14,1.39-21,.51-10.67,2.52-20.64,11.37-27.91a6.45,6.45,0,0,0,1.2-2.07Z"/><path class="cls-4" d="M188.44,372.73l5.13,1.78c-1.76,6.26-3.41,11.82-4.87,17.43-.7,2.73-1.21,5.41,1.33,7.84,6.5,6.2,6.31,13.61,3.34,21.88l-6-.74c-.6,3.51-1,6.73-1.7,9.9C184.4,437,179.9,440,174.05,439c-17.88-3.21-22.93-20-16.46-32.43a25,25,0,0,0,2.63-11.47c.15-6.56.52-13.13,1-19.67.49-6.06.64-6.05,7.4-6.26,1.32.78,2.57,2.07,4,2.24C177.87,372,183.16,372.3,188.44,372.73Z"/><path class="cls-17" d="M188.44,372.73c-5.28-.43-10.57-.71-15.82-1.37-1.39-.17-2.64-1.46-4-2.24,1.35-14.88,2.55-29.76,4.08-44.62,1.22-11.82,2.62-23.65,4.38-35.4,1.24-8.28,3.24-16.45,4.87-24.67.31-1.59.44-3.21.66-4.82l1-.18c.42,2.55,2,3.28,4.44,3.19,3.47-.11,6.94.08,10.41.14l-.12,20.95-.33,0c-1.38,7.27-3.23,14.49-4,21.82-1.39,12.58-2.06,25.23-3.18,37.84-.73,8.16-1.75,16.29-2.56,24.44A39,39,0,0,0,188.44,372.73Z"/><path class="cls-17" d="M270.38,184.14a.72.72,0,0,1-.84.68l-2,1.5.1-.09-1.47,1.5.05,0a62.6,62.6,0,0,0-6.16,2.52c-5.37,2.89-10.48,6.34-16,8.84-7.07,3.18-11.13.29-10.48-7.48.26-3,2.33-5.93,3.48-8.92a36.32,36.32,0,0,0,1.08-3.87l.06-.66c2.74-.19,6.06.52,6.82-3.35.65-3.32.32-6.13-3.14-8.46-8.49-5.73-14.86-13.52-19.75-22.52l-1.2-1.52.07,0c-.73-6.83-6-9.14-11.33-11.38l0,.06-1.41-1.85a.83.83,0,0,0-.15-.85l-1.32-1.59.13-.06c.14-5-1.59-10.63,4.25-13.92l5.88,19c1-6.38,1-12.46,1-18.54a22.46,22.46,0,0,1,7-16.26c.07,1.44.74,3.27.11,4.27-3.26,5.17-5,10.55-4.38,16.77.42,4.42.06,8.9.09,13.35,0,1.4-.31,3.06.31,4.14,5.73,10,10.34,20.88,20.83,27.31,2.11,1.29,4.68,2.92,5.53,5,3,7.3,8.26,9.6,15.6,8.53a20.26,20.26,0,0,1,2.81,0c.51,4.31,4.29,2,6.47,3.23l-.59,2.54.05-.06Z"/><path class="cls-8" d="M183.69,259.43l-1,.18c-.94,0-1.89,0-2.82,0-5.1-.39-6.25-1.12-5.4-5.83,1.75-9.83,3.23-19.86,6.54-29.2a72,72,0,0,1,20.39-30.71c2.21-1.93,5-3.18,7.55-4.75-2.12,4.92-4.27,9.83-6.34,14.77-4.25,10.17-4.32,21-4.64,31.71H184.1v17.21c0,.91,0,1.83,0,2.75Z"/><path class="cls-18" d="M208.13,347.46a82.4,82.4,0,0,0-1.37,8.17c-.62,9.33-1,18.66-1.6,28,0,.53-.65,1-1.88,2.88-.84-7.1-1.54-12.89-2.21-18.69-.22-1.94.81-4.53-2.56-4.76q0-6.39,0-12.77l4.2-.68c-.82-1.76-1.4-3-2.06-4.47l-2.11,2.29q.13-20.6.28-41.19l1.4-.69-1.12-.68c0-1.27,0-2.55,0-3.82,2.72-1.58,2.78-3.16,0-4.73l-1-12.62.33,0c2.27.07,2.68-1.33,2.66-3.21-.05-3.46,0-6.92,0-11.77,2.23,1.55,3.88,2.1,4,2.89a119.46,119.46,0,0,1,1.59,14.58c.3,9.65.24,19.31.33,29l.22.28c-1.95-.56-3.18-.07-3.29,2.18-.15,3.25-1,6.6-.4,9.71C204.73,334.1,201.44,342,208.13,347.46Z"/><path class="cls-18" d="M197.93,235.56c.32-10.75.39-21.54,4.64-31.71,2.07-4.94,4.22-9.85,6.34-14.77L218,182l2.63,2.77a6.45,6.45,0,0,1-1.2,2.07c-8.85,7.27-10.86,17.24-11.37,27.91-.33,7-.92,14-1.39,21Z"/><path class="cls-15" d="M198.5,347.42l2.11-2.29c.66,1.44,1.24,2.71,2.06,4.47l-4.2.68Z"/><path class="cls-16" d="M199.09,296.31c2.79,1.57,2.73,3.15,0,4.73Z"/><path class="cls-6" d="M220.9,142.27l1.2,1.52Z"/><path class="cls-6" d="M208.25,129.14l1.41,1.85Z"/><path class="cls-6" d="M206.78,126.7l1.32,1.59Z"/><path class="cls-16" d="M199.06,304.86l1.12.68-1.4.69A3.43,3.43,0,0,1,199.06,304.86Z"/><path class="cls-8" d="M199.54,512.63l-1.43-1.06Z"/><path class="cls-19" d="M503.61,123.94l-1.19,7.66-7.31,20.29,3.85.71c1,7,1.47,14,3,20.82,1.69,7.44,6.18,13.09,14.08,16.2-4.75,4.85-10.69,6.38-16.62,7.93l-1.3.23-3,1c-6.23-3.3-12.56-5.95-19.7-2.76l-4.26.2-4.34-.51c.89-4.16-1.81-8.24,3.05-11.15,10.24-6.13,16.65-15.65,21.7-26.16a15.85,15.85,0,0,0,1.83-6c.3-6.8.27-13.62.31-20.43,0-3.92-1.51-6.41-5.69-7.53-13.66-3.67-25.8-9.67-32.36-24.06-9.67,10.83-19.17,20.65-33.88,21-5,8.55-4.49,17.53-4.5,26.43-1.29-3.66-2.53-7.34-3.9-11-.59-1.57-1.44-3.05-2.18-4.57-1.44-8.42-3.19-16.79-4.14-25.26-.29-2.61,1.62-5.47,2.51-8.21,8.05-4.74,10.41-12.73,12-21.12.32-1.73-.2-3.35-2.54-3.26.7-3.33,3.56-3.22,6-3.77,2.69.33,5.38.78,8.08,1,6.14.45,12.28.77,18.42,1.14,6.57,1.54,13.33,2.54,19.67,4.73,16.41,5.68,27.36,16.61,30.55,34.22.66,3.62.91,7.31,1.35,11A2.88,2.88,0,0,0,503.61,123.94Z"/><path class="cls-8" d="M421.86,44.93c-3.49-4.59-8.95-5.32-13.9-6.86S398,35.69,392.78,33.6l14.74-4.45c1.79-.48,3.57-1,5.37-1.43,3.84-.87,6-3.22,6.76-7.07,1.08-5.2,2.34-10.37,3.65-15.52.33-1.29,1.19-2.44,2.55-5.13,2.16,7.75,4.24,14.05,5.62,20.51.91,4.24,2.85,6.46,7.15,7.35,6.09,1.27,12.06,3.1,19.27,5-6.3,4-12.52,4.55-18.29,6.36-2.55.79-6.53.12-6.7,4.6Z"/><path class="cls-15" d="M451.54,72.76c-6.14-.37-12.28-.69-18.42-1.14-2.7-.19-5.39-.64-8.08-1,4.46-4.57,10.27-2.63,16.65-2.92L433,61.64c-.74-1.88-1.15-4-2.31-5.58-1.52-2.06-3.25-4.24-.54-5.89,1.5-.91,4.25-.2,6.29.32s3.61,1.7,5.41,2.59L449.17,64l12.69-1.39,7.61-10.91c2.29.22,3.4-.64,2.79-3.07l.36.34-.37-.32c1.13.06,2.52.58,3.36.12,3.95-2.2,5.17.65,7.05,3.14-1.4,1.66-2.83,2.92-3.6,4.5-.28.58,1,1.91,1.51,2.9l-6.18,4-1.81,1.13-3,1.52c-4.9,2.8-9.5,6.37-15.69,5.77C453.14,71.64,452.32,72.39,451.54,72.76Z"/><path class="cls-18" d="M451.54,72.76c.78-.37,1.6-1.12,2.33-1.05,6.19.6,10.79-3,15.69-5.77.81.59,1.59,1.64,2.44,1.7,18.45,1.14,25.12,6.47,29.56,24.46a82,82,0,0,1,1.55,30.58c-.44-3.66-.69-7.35-1.35-11-3.19-17.61-14.14-28.54-30.55-34.22C464.87,75.3,458.11,74.3,451.54,72.76Z"/><path class="cls-18" d="M441.89,53.08c-1.8-.89-3.51-2.1-5.41-2.59s-4.79-1.23-6.29-.32c-2.71,1.65-1,3.83.54,5.89,1.16,1.58,1.57,3.7,2.31,5.58l-3.88-1.75-5.84-5.37c-2-3-4.59-5.84-1.46-9.59l11-1.1Z"/><path class="cls-18" d="M480.57,59.31c-.55-1-1.79-2.32-1.51-2.9.77-1.58,2.2-2.84,3.6-4.5-1.88-2.49-3.1-5.34-7.05-3.14-.84.46-2.23-.06-3.36-.12,2.83-4.41,7-5.95,12-5.27,5.4.75,7.24,4.67,3.95,9C486.13,55,483.14,57,480.57,59.31Z"/><path class="cls-18" d="M472.26,48.63c.61,2.43-.5,3.29-2.79,3.07Z"/><path class="cls-18" d="M472.58,64.42l1.81-1.13Z"/><path class="cls-19" d="M225.05,97a22.46,22.46,0,0,0-7,16.26c-.09,6.08,0,12.16-1,18.54l-5.88-19c-.58-11.24-1.53-22.47-1.59-33.71a43.91,43.91,0,0,1,6.48-22.71l8.74,9.1c5.8-13.63,13.85-23.35,27-27.77a45.3,45.3,0,0,1,25.95-1.47c-1.57,4-3.41,7.77,1.17,11,9.49-6.16,19.49-4.36,29.44-.8,4.6,1.65,9,3.73,13.55,5.62,2.78,2,4,4.46,3.82,8.17-.29,7.66-3.05,14.47-6,21.29-2.6,2.64-4.78,6.06-7.89,7.74-5.88,3.16-7,8.16-7.41,13.92-.2,3-.67,6-1,9l-4.59,13.36-.18-.15c-.22-9.16-1.23-18.14-5.9-26.9-10.91,1.86-20.89-.81-30.09-6.64-2.77-1.75-5.37-3.8-8.24-5.34-1.74-.94-4-1.87-5.81-1.63C239.28,86,230.72,88.77,225.05,97Z"/><path class="cls-5" d="M363,101.18c3.06.43,1.95,2.73,1.81,4.37-.79,9.18-2.84,17.92-8.72,25.41-1.56,2-2.49,4.46-3.71,6.72,1.07,2.23,5.07,4.17.6,6.62-1.06-.26-2.89-1-3.07-.7-4.24,6.89-8.3,13.89-12.69,21.35h3.76c-.32,5.25-4.13,3.72-5.91,3.43l-15.29,20.26-7-4.9c1.26-2.5,2.36-5.09,3.8-7.48q17.84-29.55,35.79-59C355.66,111.77,359.4,106.53,363,101.18Z"/><path class="cls-19" d="M408.37,184.82c6.58-6.44,8-14.88,9.18-23.45a48.81,48.81,0,0,1,1.2-5,2.65,2.65,0,0,0,1.33.26c.56.91,1.12,1.81,1.69,2.71l1.17,2c5,11.54,13.31,20.08,24.56,26-.13,2.91-.25,5.63-.38,8.48l-6.86.44a65.39,65.39,0,0,0-8.15-1.2c-1.58-.06-3.19.86-4.79,1.34Z"/><path class="cls-8" d="M319.66,81.44c3-6.82,5.72-13.63,6-21.29.14-3.71-1-6.15-3.82-8.17.75-1,1.85-1.91,2.2-3,1.23-4,2.21-8,4.28-12.14,1.39,4.77,3.62,9.47,4,14.32.8,10.4,6.56,14.25,16.15,15.07,4,.34,8,2.22,12.19,4.55-4.23,1.23-8.48,2.4-12.68,3.73-2.36.74-4.64,1.75-7,2.65-5.24-3.05-7.41-3-9.37.63-1.69,3.09-3.21,6.29-4.8,9.43L324.23,90l-.18,0a29.29,29.29,0,0,0-1.36-3.64C321.79,84.62,320.68,83.06,319.66,81.44Z"/><path class="cls-17" d="M341.12,79.87a52.37,52.37,0,0,1,4.95,3.76Q351.89,89.2,357.46,95a15.73,15.73,0,0,1,1.94,3.52,9.39,9.39,0,0,0-1.38,1.52q-15.27,25.41-30.46,50.87c-1.35,2.27-2.26,4.75-5.58,4.28l-.65-1.55a10.16,10.16,0,0,1,.08-1.23l2.67-2.94c4.12-4.38,7.33-9.18,7.14-15.54,3.24.05,2.72-2.28,2.71-4.28l1.52-1.42q1.37-5,2.74-9.9l1.46-1.47-.09-2.72c0-.5.09-1,.13-1.5.45-1.88.89-3.77,1.34-5.66l1.32-2.94a4.67,4.67,0,0,0-.1-1.18Z"/><path class="cls-14" d="M408.37,184.82l18.95,11.6c4.84,3.13,9.61,6.39,14.56,9.33,2.3,1.36,5,2.1,7.47,3.12,3.53.92,1.49,3.72,1.92,5.69l-2.69-1.38c-.21-2.3-.21-2.3-1.66-1.4a30.67,30.67,0,0,1-5.09-1.91q-34.06-20.25-68-40.64c-5.94-3.59-11.59-7.67-17.36-11.53.57-.87,1.15-1.73,1.73-2.6,11.1,6.73,22.17,13.51,33.32,20.16C397,178.57,402.74,181.64,408.37,184.82Z"/><path class="cls-11" d="M322,155.2c3.32.47,4.23-2,5.58-4.28q15.13-25.48,30.46-50.87a9.39,9.39,0,0,1,1.38-1.52l3.55,2.65c-3.55,5.35-7.29,10.59-10.64,16.06q-18,29.45-35.79,59c-1.44,2.39-2.54,5-3.8,7.48l-2.91-1.64c1-2.26,2.11-4.51,3.13-6.79,1.48-3.32,2.93-6.66,4.39-10,3-2.2,6.38-4.15,4.48-8.82a1.62,1.62,0,0,0-.14-1.06Z"/><path class="cls-20" d="M341.12,79.87l1.13,23c-1.61-1.26-3.21-2.53-5.4-4.26v5.57l-8.48-7.11-2.77-2.88-1.46-2.74-.09-1.5.18,0,4.6.8-2-3.61c1.59-3.14,3.11-6.34,4.8-9.43,2-3.58,4.13-3.68,9.37-.63Zm-8.48,14.34-1.83-.89-.22.64,1.94.37,1.53,2.61.93-.75Z"/><path class="cls-11" d="M358.16,155.1c-.58.87-1.16,1.73-1.73,2.6l-1.36,1.65-1.46,4.88c-2.35,1.65-4.76,2.53-7.28.38-1.95-1.68-3.69-1.13-5.4.34h-3.76c4.39-7.46,8.45-14.46,12.69-21.35.18-.29,2,.44,3.07.7-.19,2.06-2,4.73,2,5.22l1.78,1.2.15.08,1.24,1C358.09,152.87,358.12,154,358.16,155.1Z"/><path class="cls-17" d="M420.08,156.61a2.65,2.65,0,0,1-1.33-.26c.11-3.32-2.53-3.49-4.74-4-4.33-1.07-7.1-3.77-7.66-8.12-.61-4.75-.47-9.5,4.9-11.93.74,1.52,1.59,3,2.18,4.57,1.37,3.63,2.61,7.31,3.9,11C419.16,150.46,423,152.49,420.08,156.61Z"/><path class="cls-8" d="M405.22,63.56c-4.53,1.56-8,1.82-10,3.7s-2.25,5.28-3.89,9.65c-1.33-7.85-4.2-12.44-11.78-13.06,7.42-1.32,11.09-5.58,11.73-13.05C392.72,58.23,396.74,62.43,405.22,63.56Z"/><path class="cls-18" d="M419,74.42c2.34-.09,2.86,1.53,2.54,3.26-1.55,8.39-3.91,16.38-12,21.12C410.31,89.73,411.24,80.74,419,74.42Z"/><path class="cls-8" d="M423.32,54.52l5.84,5.37L426,66.38C423.25,62.3,421.77,58.77,423.32,54.52Z"/><path class="cls-14" d="M358.06,151.76l-1.24-1Z"/><path class="cls-14" d="M356.67,150.72l-1.78-1.2Z"/><path class="cls-15" d="M496.55,498.71q-.68,0-1.35.06l-18.59.24-17.77.25-28.69-1.89L422,494.65a40.1,40.1,0,0,1-.4-4.67,347.52,347.52,0,0,0-7.94-83.14c-4.22-19-.75-37.81,4.54-56.24.69-2.38,2.44-4.46,3.7-6.68l2.29-2.26c7.08-8.79,11.27-19,14.57-29.64,2.86,2.62,6,5,8.49,7.94,2.91,3.46,5.62,3.71,9.78,2.07,15-5.91,30.18-11.35,45.29-17-.48,7.2-1.12,14.39-1.39,21.6a315.38,315.38,0,0,0,2.86,55.87c.41,2.88,1.53,5.67,2.32,8.5l1.69-.37c0-8.72.15-17.44,0-26.15-.29-14.48-.86-29-1.1-43.44,0-1.08,1.63-2.2,2.5-3.3.62,9.24,1.73,18.48,1.7,27.71a79.94,79.94,0,0,0,2.51,19.11q1.05,14.24,2.11,28.48a22.87,22.87,0,0,0-3.31,14.72c.37,3.07,1.25,5.56,5.15,4.87q1.33,14.77,2.68,29.55c1.33,16.49,2.66,33,4,50.28l-18.68,3.76-7.32,1.17Z"/><path class="cls-4" d="M517.33,412.66c-3.9.69-4.78-1.8-5.15-4.87a22.87,22.87,0,0,1,3.31-14.72c4.24-2.9,4.69-4.36,3.2-9.84-1.33-4.89-2.6-9.8-4-15l4.64-2.42,18.2-2.76,7.23.44c0,6.26.24,12.31-.07,18.34a41.23,41.23,0,0,0,3.62,18.4c6,14.26-2,27.52-17.19,29-5.59.56-9.12-1.95-10.41-7.66-.61-2.72-.78-5.54-1.34-8.28C519.32,413,518.05,412.88,517.33,412.66Z"/><path class="cls-4" d="M533.77,254.76c10.1-.79,20.74,6.55,25,17.34.6,1.5,1,3.1,1.43,4.66-.29,1.3-.57,2.61-.86,3.91-.21,1-.43,2-.64,2.93-.53.92-1.07,1.83-1.6,2.74-7,3-13.91,5.86-20.81,8.92-1.18.52-2.06,1.75-3.07,2.65l-17,8.65-5.58-1.72-2.72-3c-1.67-6.42-7-10.27-10.72-15.25-.46-1.21-.92-2.43-1.29-3.39l15.44-6.48,1.24-3.15c4.47-.2,9.14,0,10.41-5.88,3.46,1.2,3.32-1.38,3.63-3.48.4-1,.79-1.93,1.18-2.89Q530.83,258,533.77,254.76Z"/><path class="cls-17" d="M516.28,306.56l17-8.65c4,21.55,1.93,43.49,4.32,65.15l-18.2,2.76c-.12-2.82-.23-5.65-.34-8.47,0-1.84-.1-3.68-.16-5.52a58.41,58.41,0,0,0,.31-7C518.27,332.08,517.26,319.32,516.28,306.56Z"/><path class="cls-21" d="M557.12,286.34c.53-.91,1.07-1.82,1.6-2.74,3.12,2,6.21,4,9.37,5.88C586,300.26,604,311,621.92,321.83c5.09,3.1,9.85,6.72,14.77,10.11-.38,1-.77,2-1.16,3-6.2-4.07-12.29-8.32-18.62-12.16-19.19-11.63-38.48-23.09-57.71-34.64A16.77,16.77,0,0,1,557.12,286.34Z"/><path class="cls-22" d="M587.18,348.88l-5.66,0-.8-6.34c-1.59,1.32-2.55,1.73-2.8,2.41a19.83,19.83,0,0,0-.71,3.88c-4.43-4.12-1.39-8.62-.16-12.69.41-1.36,3.8-2.59,5.78-2.52a5.61,5.61,0,0,1,5.46,5.45C588.33,342.33,592.77,346.3,587.18,348.88Z"/><path class="cls-11" d="M635.53,334.94c.39-1,.78-2,1.16-3l2.89-4.16,2.21-4.21c2.36.47,4.48,1.21,4.62,4.15-2.47,2.89-5.4,5.51-5.5,9.74C638.69,337.53,636.16,338.27,635.53,334.94Z"/><path class="cls-14" d="M577.21,348.87a19.83,19.83,0,0,1,.71-3.88c.25-.68,1.21-1.09,2.8-2.41.34,2.71.57,4.52.8,6.34-.39.45-.79.9-1.18,1.36h-1.78Z"/><path class="cls-13" d="M533.77,254.76q-3,3.28-5.9,6.59-11.39-7.17-22.78-14.33l1.58-2,1.3.78,1.64,1.08c2.67,1,2.94-.85,3.21-2.69.16-.13.46-.27.44-.37a5.19,5.19,0,0,0-.33-1c-.06-1-.11-1.92-.17-2.88l-.28-4.22c-1.23-11.38-5.82-21.48-11.9-31,3.3,2,7.18,3.46,9.8,6.13A86.49,86.49,0,0,1,533.77,254.76Z"/><path class="cls-18" d="M512.76,239.94c.06,1,.11,1.92.17,2.88,0,.46-.07.92-.11,1.38-.27,1.84-.54,3.69-3.21,2.69L508,245.81l-1.3-.78L491,234.34l2.83-.13,6.2,1.41c-1.64-10.69-2.73-20.63-10.31-28.35L475.47,196c7.14-3.19,13.47-.54,19.7,2.76l3.68,4.49,2,1.47h-.29c6.08,9.52,10.67,19.62,11.9,31Z"/><path class="cls-8" d="M641.79,323.57l-2.21,4.21c-2-1.25-3.91-2.55-5.91-3.75-17.46-10.39-34.9-20.82-52.42-31.12-7.21-4.24-14.59-8.17-21.89-12.24.29-1.3.57-2.61.86-3.91q16.78,10,33.57,20c13.8,8.21,27.61,16.42,41.49,24.5C637.23,322.44,639.61,322.83,641.79,323.57Z"/><path class="cls-17" d="M499,152.6l-3.85-.71c2.54-7,4.92-13.67,7.31-20.29.79,2.34,1.77,4.64,2.35,7C506.25,144.66,503,148.83,499,152.6Z"/><path class="cls-8" d="M500.87,204.72l-2-1.47Z"/><path class="cls-18" d="M498.13,197.78l1.3-.23Z"/><path class="cls-5" d="M124.65,563.93c-5.74-6.61-6.21-14.52-5.59-22.69l7.18-1.4q.6,0,1.2,0c2.3,1,4.51,2.31,6.91,2.78,10.69,2.08,21.41,4.08,32.17,5.78,7.57,1.2,15.2,2.45,22.83,2.6,6.4.12,12.83-1.32,19.25-2.07.41,6.39-1.18,12.28-5.62,16.89-4.66,4.84-9.84,9.18-14.79,13.74-3.95,0-7.9-.15-11.84,0-8.29.24-16.58.61-24.87.93,0-8.14-4.11-15-7.47-21.95-2.2-4.57-4.26-9.78-9.28-11.75a15,15,0,0,0-9.85,0c-1.22.45-1.31,4.94-1.3,7.59A87.44,87.44,0,0,0,124.65,563.93Z"/><path class="cls-13" d="M164.37,514.5c.56.85,1.41,2.52,1.66,2.44,6.22-2.13,12.2,1.54,18.66.09.65,5.92,5,7.23,9.3,8.68l.24,3.86-12.95,1.67c-.77-.42-1.52-1.17-2.32-1.24-12.5-1-25-1.6-37.49-3-5.55-.61-11.48-1.86-13.9-8.31C139.54,514.74,152,514.85,164.37,514.5Z"/><path class="cls-11" d="M208.6,548.9c-6.42.75-12.85,2.19-19.25,2.07-7.63-.15-15.26-1.4-22.83-2.6-10.76-1.7-21.48-3.7-32.17-5.78-2.4-.47-4.61-1.83-6.91-2.78,7.6.89,15.18,2.18,22.81,2.56a222,222,0,0,0,27.42,0c8.52-.64,16.94-2.56,25.39-4,2-.35,4.05-1,6.07-1.46l-.55,11.86Z"/><path class="cls-21" d="M127.57,518.71c2.42,6.45,8.35,7.7,13.9,8.31,12.46,1.38,25,2,37.49,3,.8.07,1.55.82,2.32,1.24-2.15.51-4.28,1.4-6.44,1.44-9.62.16-19.25.08-28.88.08l-10-1.46-3.87-.07-8.76-3-1.64-1.15-1.2-1.14L119,524.35C119.8,519.36,123.53,518.81,127.57,518.71Z"/><path class="cls-12" d="M194.23,529.57l-.24-3.86c5.47-3.21,5.47-3.21,2.91-8,3.48-2.36,7.09-.23,10.64-.32l.06,8.35Z"/><path class="cls-11" d="M126.24,539.84l-7.18,1.4-.22-4.17Z"/><path class="cls-5" d="M123.32,528.28l8.76,3C128.75,531.46,125.44,531.63,123.32,528.28Z"/><path class="cls-5" d="M136,531.3l10,1.47Z"/><path class="cls-5" d="M120.48,526l1.2,1.14Z"/><path class="cls-3" d="M124.65,563.93a87.44,87.44,0,0,1-1.07-9.61c0-2.65.08-7.14,1.3-7.59a15,15,0,0,1,9.85,0c5,2,7.08,7.18,9.28,11.75,3.36,7,7.42,13.81,7.47,21.95l-8.27.65c-2.86-1.93-6-3.54-8.51-5.86-3.17-2.94-5.8-6.46-8.66-9.72l-1.38-1.59Z"/><path class="cls-3" d="M154.39,593.6c1.55,5.76,3.1,11.51,4.75,17.67a34.93,34.93,0,0,1-26.76-5.43,4.48,4.48,0,0,1-1.88-2.78c-1-7.57-1.76-15.16-2.54-22.75,0-.26.66-.58,1-.88l14.34,8.39C146.82,590.09,149.64,593.69,154.39,593.6Z"/><path class="cls-7" d="M154.39,593.6c-4.75.09-7.57-3.51-11.08-5.78q-.06-3.37-.1-6.74l8.27-.65c8.29-.32,16.58-.69,24.87-.93,3.94-.12,7.89,0,11.84,0l.5,6.57c-2,4.38-6.15,5.54-10.24,5.95C170.46,592.86,162.41,593.12,154.39,593.6Z"/><path class="cls-5" d="M124.66,563.91,126,565.5Z"/><path class="cls-17" d="M346.43,258.76l3.24,13.74c.42,15.49.94,31,1.2,46.48.06,4.1-.66,8.22-1,12.6l-37.22,3.66a2.75,2.75,0,0,0-1.07,0l-6.63.17L279,338l-2.93.25-11.18.85V320.44c6.78-.42,13.65-.22,20.08-3L303,316.33c8.41-.49,16.82-1,25.24-1.46,2.91-.15,4.35-1.56,4.24-4.43-.27-7.26-.21-14.55-1-21.76-1.07-9.95-2.79-19.84-4.23-29.76Z"/><path class="cls-1" d="M290.2,592.14q2.19-17.75,4.36-35.5,19.05,3.65,38.12,7.28c2.72.51,5.48.81,8.22,1.21l-2,39.45c-3.5.11-7,.36-10.5.28-1.55,0-3.45-.26-4.55-1.17C314,595.6,301.67,595.19,290.2,592.14Z"/><path class="cls-17" d="M338.86,604.58l2-39.45c.32-6.45.89-12.63-1.8-19.14-1.91-4.62-.62-10.57-.75-15.92q3.54-4.26,7.07-8.51l1.41-.26.64.16.65-.13,1.5.1,5.53,1.33,2.56.26,1.65.91,1.69.32,2.58,1.57c.17.46.34.92.5,1.38-.22,1.3-.45,2.6-.68,3.89-.44.61-.89,1.21-1.34,1.82a1.36,1.36,0,0,0,0,1l-.07.13c-4.17,1.22-2,3.54-1,5.66.05,1,.11,2,.16,3,3.35,6.78,2.75,14,2.3,21.17l-2.65.1H345.17V578c-.89,1.08-2.46,2.09-2.55,3.23a117.65,117.65,0,0,0-.12,11.88c.33,15.58-3.27,14.93,15.05,14.41.41,0,.8-.39,1.91-1v-9.91l.66-.11h.68c-.11,4.37.16,8.66,2.73,12.44-6.32,2.62-12.87,1.63-19.22.57C342.27,609.21,340.66,606.31,338.86,604.58Z"/><path class="cls-6" d="M363.53,563.86c.45-7.19,1.05-14.39-2.3-21.17.82-.82,2.14-1.54,2.34-2.49a32.35,32.35,0,0,0,.23-5.92l4.85-.51.17-1.38-5.37-1.3c.23-1.29.46-2.59.68-3.89l2.21,0,17.13-.1,5.74,8.21c-4.38,1.51-9.64-2.23-14.33,3l14.26,8.57c-2.34.51-5.28.42-4.23,4.28-.66.6-1.9,1.19-1.9,1.78,0,3.19.34,6.38.56,9.56-3.86,0-7.72-.17-11.57.06-1.83.11-3.61,1-5.42,1.5l.11,0c-.52.92-1.45,1.81-1.51,2.76-.62,9.41-1.09,18.83-1.61,28.24l-2.39.11c.21-3,.41-6,.64-9Q362.66,575,363.53,563.86Z"/><path class="cls-23" d="M389.14,546.82l-14.26-8.57c4.69-5.21,9.95-1.47,14.33-3l11.29.05.67.19.68-.17c2.8,2.35,5.72,4.58,8.38,7.08s1.21,5.07-.32,7.53l-14.73-.05Z"/><path class="cls-18" d="M383.47,527.06l-17.13.1c-.48-6,3.78-8.4,8-10.69C379.66,518,383.22,521.14,383.47,527.06Z"/><path class="cls-18" d="M345.42,521.56q-3.53,4.26-7.07,8.51l-6-7.37,4-5.42Z"/><path class="cls-18" d="M395.18,549.9l14.73.05.48,5.54-14.21.34C393.61,554.23,394.44,552.06,395.18,549.9Z"/><path class="cls-18" d="M279,338l25.93-2.59-2.07,3.65c-5.71-1.85-11.44.6-17.14-.11C283.45,338.69,281.21,338.33,279,338Z"/><path class="cls-6" d="M355.15,522.76l-5.53-1.33Z"/><path class="cls-18" d="M311.54,335.25a2.75,2.75,0,0,1,1.07,0,1.41,1.41,0,0,1-.51.22A1.83,1.83,0,0,1,311.54,335.25Z"/><path class="cls-6" d="M363.63,525.82l-2.58-1.57Z"/><path class="cls-6" d="M348.12,521.33l-.65.13-.64-.16Z"/><path class="cls-6" d="M359.36,523.93l-1.65-.91Z"/><path class="cls-6" d="M401.85,535.34l-.68.17-.67-.19Z"/><path class="cls-24" d="M226.48,605.25c1.89-6.19,1.21-12.24.29-18.62-1.36-9.45-1.11-19.13-1.68-28.7-.87-14.45-1.86-28.89-2.78-43.33-.07-1.18-.05-2.36,0-3.54.47-21.58.87-43.18,1.45-64.76.26-9.35.83-18.69,1.41-28,.28-4.4.82-8.8,1.44-13.18.45-3.13,2.33-5.14,5.62-5.25,4-.13,8,0,12,0,3.66-.07,5,1.79,5,5.25,0,3.63-.86,7.4,2.45,10.47.79.73.12,3.13,0,4.75-.18,1.82-.54,3.63-.82,5.44-2.19,15.51-4.47,31-6.54,46.54-1.23,9.25-2.46,18.52-3.07,27.82-.32,4.85.65,9.79,1.1,14.69.75,8.15,1.54,16.3,2.32,24.44-1.17,6.59-2.56,13.15-3.44,19.77-1.29,9.63-2.22,19.31-3.3,29L235,603.45Z"/><path class="cls-1" d="M237.85,587.93c1.08-9.66,2-19.34,3.3-29,.88-6.62,2.27-13.18,3.44-19.77l17.54,6.32c.82,4,1.82,8,2.44,12.07,1.53,10.09,2.88,20.21,4.31,30.31-1.53.47-3.07,1.38-4.58,1.33C255.48,588.91,246.67,588.38,237.85,587.93Z"/><path class="cls-12" d="M226.48,605.25l8.49-1.8v12.17a38.28,38.28,0,0,1-4.37.54c-13.31,0-26.63.1-39.95,0-1.93,0-3.86-.92-5.79-1.41-.26-4.57,2.19-6.45,6.45-7.08a70.79,70.79,0,0,0,8.55-2.33l14.06-2.86Z"/><path class="cls-12" d="M270.4,602.88l8.51,4.81,9.83-4.44c3.76,3.21,9.37,5.41,6.47,12.56h-31.3C260.57,608.58,266.68,606.34,270.4,602.88Z"/><path class="cls-13" d="M361.18,595.09l2.39-.11.15,2.85c.46,8.35.64,8.54,8.87,8.48,2,0,4.06-.17,6.64-.29l-2.86-8.18-.18-1.52c.37-3.81.43-7.75,4.43-9.93a13.61,13.61,0,0,1-.1,2.79c-2.24,9.18.43,13.87,9.72,17.34.81.3,1.2,1.68,1.79,2.56-7,.42-14,1-21,1.16-2.49.07-5-.81-7.51-1.26-2.57-3.78-2.84-8.07-2.73-12.44C360.92,596.06,361.05,595.57,361.18,595.09Z"/><path class="cls-1" d="M456.83,604.94l-4-2.77c.87-6.6,1.7-13.21,2.63-19.8,1.48-10.48,3-21,4.56-31.43l15-4.43c.16,1.4.3,2.81.49,4.2q3.58,26.28,7.18,52.56l-.35.34Z"/><path class="cls-5" d="M609.74,566.67c7,4.76,10,13.94,18.65,16.86l-.11,0,1.57,3.13c-1.7.9-3.39,2.57-5.09,2.58-29.53.14-59.06.07-88.59,0a6.13,6.13,0,0,1-1.36-.33l-.09-1.46a.76.76,0,0,1-.1-.89c6.14-5.28,12.47-10.35,16.9-17.31.7-1.11,2.13-1.76,3.22-2.63Z"/><path class="cls-3" d="M629.85,586.7l-1.57-3.13Z"/><path class="cls-3" d="M534.72,587.51l.09,1.46Z"/><path class="cls-4" d="M188.69,586.1l-.5-6.57c4.95-4.56,10.13-8.9,14.79-13.74,4.44-4.61,6-10.5,5.62-16.89l0-.09c3.13,5.14,2.52,10.75,2.1,16.34l-6.86,9.92C199,579,195.27,584.54,188.69,586.1Z"/><path class="cls-9" d="M213.92,602.46l-14.06,2.86q1.5-9.41,3-18.8l10.78-.13Z"/><path class="cls-1" d="M213.63,586.39l-10.78.13q.5-5.73,1-11.45l6.86-9.92c.56,2.7,1.27,5.37,1.62,8.08C212.87,577.6,213.2,582,213.63,586.39Z"/><path class="cls-1" d="M483.38,603.31c0,1.91,0,3.83,0,5.74l-1-5.44.35-.34Z"/><path class="cls-25" d="M483.38,603.31l-.65,0q-3.6-26.28-7.18-52.56c-.19-1.39-.33-2.8-.49-4.2.63-13.27,1.29-26.54,1.85-39.81.11-2.56-.19-5.13-.3-7.69l18.59-.24c-.46,14.07-.28,28.19-1.56,42.18-1.44,15.63-2.74,31.22-2.72,46.93,0,3.92-.89,7.85-1.32,11.78-.29,2.61.81,4,3.55,4C489.78,607,486.64,603.16,483.38,603.31Z"/><path class="cls-25" d="M496.55,498.71l1.51-1.29Z"/><path class="cls-23" d="M380.62,586.39c-4,2.18-4.06,6.12-4.43,9.93H365.74c.33-11.21.64-21.77.95-32.34l-.11,0h16.1c.37,6.43.7,12.35,1,18.26a3.9,3.9,0,0,0-.25,1.31l-2.42,1.63A2.21,2.21,0,0,0,380.62,586.39ZM379.3,577c0-1.62.09-3.26,0-4.88-.19-2.82-1.82-4.13-4.61-4-2.53.11-3.79,1.55-4,4a31.82,31.82,0,0,0,0,4.88c.28,3.2-1.43,7.52,3.93,8.18C378.2,585.56,379.32,583.51,379.3,577Z"/><path class="cls-26" d="M395.18,549.9c-.74,2.16-1.57,4.33,1,5.93l1.44,8-1.3,2.84-1.57,0-8.33-1.16q-.75-7.23-1.51-14.44c-1.05-3.86,1.89-3.77,4.23-4.28Z"/><path class="cls-23" d="M385.31,596.41v-2.82c3.1-3.31,6.22-6.61,9.28-10,.25-.28.13-.88.19-1.33l0-.08,2-.25,1.84,0-.93,11.58c-1,1-1.87,2.63-2.93,2.74-3.11.32-2.75,2.41-2.86,4.4Z"/><path class="cls-27" d="M398.65,582l-1.84,0-1.94-.89c2.51-5.48,7.34-2.8,11.08-2.73,3.31.07,2.85,3.55,3.15,6.07.8,6.85,1.73,13.68,2.61,20.52L395,605l-3-1.61h18.74l-1.29-4.32c-.65-4.87-1.23-9.76-2-14.62-.5-3.2-2.21-4.59-5.45-3Z"/><path class="cls-17" d="M409.36,599.07l1.29,4.32H391.91c-4.39-.25-5.52-3.59-6.6-7l6.62,4.27,15.92-1.42Z"/><path class="cls-12" d="M383.72,582.26c-.34-5.91-.67-11.83-1-18.26h-16.1c1.81-.52,3.59-1.39,5.42-1.5,3.85-.23,7.71-.06,11.57-.06l1.92,8.83c0,1.62.07,3.25.1,4.87q-.36,3.08-.74,6.15C384.47,582.29,384.1,582.28,383.72,582.26Z"/><path class="cls-17" d="M394.79,582.31c-.06.45.06,1.05-.19,1.33-3.06,3.34-6.18,6.64-9.28,10C385.17,587.06,389.89,584.61,394.79,582.31Z"/><path class="cls-13" d="M394.75,566.7l1.57,0c-.27,3-.33,6.21-4.14,7.23l-.4-.34Z"/><path class="cls-13" d="M384.85,582.29q.38-3.07.74-6.15l3.36,1.62.35.42C389,580.82,387.62,582.31,384.85,582.29Z"/><path class="cls-13" d="M392.18,574c-.19,1.94-.09,4.07-2.88,4.23l-.35-.42,2.83-4.15Z"/><path class="cls-13" d="M381.05,585.2l2.42-1.63Z"/><path class="cls-17" d="M394.87,581.09l1.94.89-2,.25A2.58,2.58,0,0,1,394.87,581.09Z"/><path class="cls-18" d="M226.62,347.55c0,8.45-.12,16.9,0,25.35a33.49,33.49,0,0,0,.89,6.18c1.62,8.13-.05,13.64-9.42,12.22-.48-.94-1-1.88-1.42-2.83l-.06-4.23a6,6,0,0,0,0-1.4l1.47-2.91h6.24V347.8l2-.64Z"/><path class="cls-22" d="M224.24,347.8v32.13H218l-.12-2.8,0-24V350.3l.24-2.49Z"/><path class="cls-18" d="M264.85,346.15c-.2,2.54-1.86,2.82-3.94,2.65-5.94-.48-11.9-.86-17.84-1.36-4.57-.38-9.12-.88-13.67-1.32l-.22-.29c2.12-.47,4.25-1.41,6.35-1.33,9.72.35,19.43,1,29.14,1.52Z"/><path class="cls-16" d="M208.13,347.46c-6.69-5.49-3.4-13.36-4.62-20.13-.56-3.11.25-6.46.4-9.71.11-2.25,1.34-2.74,3.29-2.18a37.26,37.26,0,0,0-1.37,6.15c-.53,9.16-3.54,19.11,7.19,25.05-.22.29-.44.57-.67.84Z"/><path class="cls-16" d="M217.86,353.16l0,24c-.42-1.91-1.25-3.85-1.18-5.75C216.91,365.3,217.45,359.24,217.86,353.16Z"/><path class="cls-18" d="M264.87,339.11l11.18-.85c-1.89,4.6-6.34.32-9.32,3.48-.37.86-1.13,2.64-1.88,4.41l-.18-.13Z"/><path class="cls-16" d="M218.11,347.81l-.24,2.49c-2.12-.38-5.27,1.24-5.52-2.82.23-.27.45-.55.67-.84Z"/><path class="cls-16" d="M216.63,388.47c.47.95.94,1.89,1.42,2.83C216.26,391,214,391,216.63,388.47Z"/><path class="cls-18" d="M229.4,346.12l-2.78,1.43-.35-.39,2.91-1.33Z"/><path class="cls-16" d="M216.53,382.84a6,6,0,0,1,0,1.4Z"/><path class="cls-13" d="M303,316.33,285,317.41c-3.37-4.21-6.49-8.64-10.17-12.56a10.61,10.61,0,0,1-2.85-9.58c3.15-22.26,6.24-44.53,9.42-67.26l-3.86-1c-.32-13.9.67-27.53,8.24-39.8.21-.33,0-.92,0-1.39l12.49-8,0,0,3.3,0,2.71,1.45,5.62,2.91,2.91,1.64,7,4.9c4.83,5.6,9.71,11.15,14.47,16.81,8.52,10.12,12.4,22.35,15.27,34.91,1,4.51.94,9.26,1.57,13.87.51,3.76-1.84,4.28-4.61,4.53l-19.17.16a26.67,26.67,0,0,0-2.78-.42c-6.05-.33-5.91-.36-7.81-6.29-1.13-3.5-2.75-6.84-4.14-10.25l-1.27.15Q307.14,279.22,303,316.33Z"/><path class="cls-4" d="M229.18,345.83l-2.91,1.33-2,.64h-6.13L213,346.64c-10.73-5.94-7.72-15.89-7.19-25.05a37.26,37.26,0,0,1,1.37-6.15l-.22-.28c3.32-2.83,5.9-7,11.2-6.23l2.81.21,4,.13c1.58.9,3.17,2.59,4.72,2.54,4.6-.15,7.41,2.08,9.44,6.3l24.79-3.06c.33,1.89.64,3.64.95,5.39v18.67l-.2,6.91c-9.71-.54-19.42-1.17-29.14-1.52C233.43,344.42,231.3,345.36,229.18,345.83Z"/><path class="cls-13" d="M238.11,178.78a36.32,36.32,0,0,1-1.08,3.87c-1.15,3-3.22,5.88-3.48,8.92-.65,7.77,3.41,10.66,10.48,7.48,5.55-2.5,10.66-6,16-8.84a62.6,62.6,0,0,1,6.16-2.52c-7,11.87-9.44,24.82-8.66,39.34H216.68c1-8.91,1.79-17.84,3-26.72.45-3.37,1.68-6.63,2.55-9.95v0l1.37-1.59C227.26,183.8,232.53,181.05,238.11,178.78Z"/><path class="cls-10" d="M197.93,235.56l8.78.12h53.7v17.18l-76.31-.09V235.56Z"/><path class="cls-24" d="M260.63,254.13c4.24,3.19,1.59,7.2,1.21,10.87-1.18,11.41-5.46,20.95-15.85,27.13-3.15,1.87-6.08,3.23-9.77,3-3.5-.18-7-.06-10.54-.08q-.19-11.22-.4-22.44a36.73,36.73,0,0,0,2.57-2.73c1.06-1.39,2-2.88,2.94-4.33,4-3.48,8.76-2.85,13.46-2.82,5.24,0,10.48,0,15.93,0V255.5Z"/><path class="cls-12" d="M285.71,185.86c0,.47.23,1.06,0,1.39-7.57,12.27-8.56,25.9-8.24,39.8h-6.92c-.73-13.2.65-25.7,9.28-36.38C281.41,188.75,283.74,187.45,285.71,185.86Z"/><path class="cls-11" d="M260.63,254.13l-.45,1.37-76.07,0c0-.92,0-1.84,0-2.75l76.31.09A1.81,1.81,0,0,0,260.63,254.13Z"/><path class="cls-12" d="M222.19,190.36c-.87,3.32-2.1,6.58-2.55,9.95-1.17,8.88-2,17.81-3,26.72H211C212.36,213.92,212.76,200.86,222.19,190.36Z"/><path class="cls-2" d="M225.28,272.65q.19,11.22.4,22.44-.36,7.1-.7,14.18l-4-.13-.06-36.64Z"/><path class="cls-28" d="M304.19,179.19l-2.71-1.45c-1.13-2.11-2.22-1.33-3.3,0l0,0-2.27-.8c-4.45-4.49-10.34-4.3-16-4.94a6.32,6.32,0,0,1-.87,0l-2.91-1.45,2.56-3,1.45.13,14.2,2.88c3.57,3.52,8.34,3.39,12.8,4.19Z"/><path class="cls-27" d="M279.08,172.11a6.32,6.32,0,0,0,.87,0l11.54,5.29c-7-.15-13.68.73-19.66,4.69l.59-2.54c-2.18-1.19-6,1.08-6.47-3.23.1-2.34.19-4.67.28-7a6.09,6.09,0,0,1,1.28-.1c.58,2.91-1.51,6.83,3.55,8.49l5-5.6Z"/><path class="cls-20" d="M291.49,177.38,280,172.09c5.64.64,11.53.45,16,4.94Z"/><path class="cls-12" d="M223.55,188.79l-1.37,1.59Z"/><path class="cls-8" d="M266.17,187.73l1.47-1.5Z"/><path class="cls-8" d="M267.54,186.32l2-1.5Z"/><path class="cls-27" d="M270.38,184.14l1.5-2.13Z"/><path class="cls-5" d="M184.11,255.52l76.07,0v7.28c-5.45,0-10.69,0-15.93,0-4.7,0-9.5-.66-13.46,2.82-5.41-3.08-11-1.72-16.56-.59-.24.05-.33.82-.49,1.25-2.56.86-4.16.27-4.15-2.75l-1.31-.88-9.74.14c-3.47-.06-6.94-.25-10.41-.14-2.45.09-4-.64-4.44-3.19Z"/><path class="cls-16" d="M198.54,262.76l9.74-.14c0,.41-.07.82-.1,1.23-.08,9.4,2.46,17.74,9.73,24.17l.27,20.91c-5.3-.74-7.88,3.4-11.2,6.23-.09-9.65,0-19.31-.33-29a119.46,119.46,0,0,0-1.59-14.58c-.12-.79-1.77-1.34-4-2.89,0,4.85,0,8.31,0,11.77,0,1.88-.39,3.28-2.66,3.21Z"/><path class="cls-23" d="M266.23,169.29c-.09,2.34-.18,4.67-.28,7a20.26,20.26,0,0,0-2.81,0c-7.34,1.07-12.6-1.23-15.6-8.53-.85-2.08-3.42-3.71-5.53-5-10.49-6.43-15.1-17.3-20.83-27.31-.62-1.08-.3-2.74-.31-4.14,0-4.45.33-8.93-.09-13.35-.59-6.22,1.12-11.6,4.38-16.77.63-1,0-2.83-.11-4.27,5.67-8.19,14.23-11,23.47-12.15,1.86-.24,4.07.69,5.81,1.63,2.87,1.54,5.47,3.59,8.24,5.34,9.2,5.83,19.18,8.5,30.09,6.64,4.67,8.76,5.68,17.74,5.9,26.9-.41,1.22-.82,2.44-1.24,3.66l1,.27c.14-1.26.29-2.52.43-3.78l4.59-13.36,6.5,3.6c0,1.77,0,3.54.07,5.31,0,1.47,0,2.94,0,4.41a9.9,9.9,0,0,0,0,1.22c-3.34,1.21-3,7.56-8.38,5.94l-1.49,1.34c-4.27-1.73-3.28,2.52-4.65,4.09l-1.19,2.65-1.33,1.64-1.41,1.47c-.42.51-.85,1-1.28,1.51a5.53,5.53,0,0,1-.23,1.34l-1.17,1.55L286.19,151c-3.52-.34-3.11,2.09-3,4.29L280.46,158l-5.85-.09a2.19,2.19,0,0,0-.27-.6c-.08-.1-.3-.09-.46-.12l.73.72c-.9,4.39-3.55,6.65-8,7.29-1.06.15-1.88,2-2.8,3.07Zm-23-39.76,1.44-2.1-.05-.56c3.27-4.65,3.21-7.38-.25-11L244,116l8.31-8.64c-3.07-3.44-8.3-4.4-13.14-2.36a81.82,81.82,0,0,1-8.63,2.56L227.17,113h12.21c-.78,2-1.83,3.29-1.67,4.45.49,3.66-2.28,8.28,2.81,10.73a.63.63,0,0,1,.35.79l1,2.94,1.42-2.57Zm1.66,20c0,1.37,0,2.74,0,4.1-2.06,3.62-1.79,4,3.09,4.13a2.35,2.35,0,0,1,1.14.22l1.62,1.25,2.64.28,1.33.14,5.77,0,1.34-.18,2.51-.3,3-1.73a1.34,1.34,0,0,1,.14-.94l1.38-1.57a3.16,3.16,0,0,1,.32-1.31l1.13-1.43c0-.83-.07-1.66-.11-2.49.18-2.81-1-4.53-4-4.35-5.5.34-11,.62-16.45,1.36C248.11,147,246.57,148.58,244.94,149.56Zm38.14-37.94c-12.62-6.9-15.34-7.38-20.39-3.32Zm-11.54,3.85c-1.79,4.92-2.4,9.34.67,14.05C275.76,123.72,275.6,119.73,271.54,115.47Z"/><path class="cls-23" d="M420.08,156.61c2.88-4.12-.92-6.15-2.75-8.8,0-8.9-.47-17.88,4.5-26.43,14.71-.34,24.21-10.16,33.88-21,6.56,14.39,18.7,20.39,32.36,24.06,4.18,1.12,5.71,3.61,5.69,7.53,0,6.81,0,13.63-.31,20.43a15.85,15.85,0,0,1-1.83,6c-5.05,10.51-11.46,20-21.7,26.16-4.86,2.91-2.16,7-3.05,11.15l4.34.51a22.93,22.93,0,0,1,2.6,2.07c3.26,3.49,2.44,6.26-2.27,7.4a16.65,16.65,0,0,1-4.83.39c-6.44-.37-12.87-.86-19.31-1.31l-7.14-8.47,6.86-.44c.13-2.85.25-5.57.38-8.48-11.25-5.94-19.52-14.48-24.56-26l-1.17-2C421.2,158.42,420.64,157.52,420.08,156.61Zm24.36,11.74c2,8.15,4.68,9.89,13.5,9.45,6.79-.33,9-2.3,10-9.45Zm-4.2-19.7,2.08.09c3.06-4.26,2.65-8.6-.15-13.5-1.2.75-2.93,1.36-2.91,1.9C439.38,141,439.87,144.81,440.24,148.65Zm27.3-11.53c.76,4.41,1.41,8.13,2.23,12.89,3.78-5.77,4-12.81.91-14.43Z"/><path class="cls-13" d="M447.4,204.75c6.44.45,12.87.94,19.31,1.31a16.65,16.65,0,0,0,4.83-.39c4.71-1.14,5.53-3.91,2.27-7.4a22.93,22.93,0,0,0-2.6-2.07l4.26-.2,14.21,11.27c.06,1.15-.25,2.5.24,3.41,4,7.42,4.24,15.42,3.87,23.53l-2.83.13-4.23,1.51-35.46-21.29c-.43-2,1.61-4.77-1.92-5.69Z"/><path class="cls-18" d="M447.4,204.75l2,4.12c-2.5-1-5.17-1.76-7.47-3.12-4.95-2.94-9.72-6.2-14.56-9.33,1.6-.48,3.21-1.4,4.79-1.34a65.39,65.39,0,0,1,8.15,1.2Z"/><path class="cls-17" d="M421.77,159.32l1.17,2Z"/><path class="cls-28" d="M326.86,87.18l2,3.61-4.6-.8Z"/><path class="cls-28" d="M315.6,109.69,317,107l2.8.09,1.39,1.42,1.44,1.4c.16.69.33,1.38.49,2.07l.92-.48-1.35-1.66c-.47-.47-.93-1-1.4-1.43L319.9,107l-1.56-3,1.32-2.79,4.39,3.09,1.47,2.78,2.79,1.46,1,.55-.91-.63L325.53,107l-1.37-2.86c-.19-3.29,2.15-2.75,4.14-2.74l1.4,1.42,1.44,1.39c.17.69.34,1.38.5,2.07l.91-.48-1.34-1.65-1.39-1.45-1.42-1.39c0-1.4,0-2.79-.08-4.18l.05-.05,8.48,7.11,0,0L341,107c-.45,1.89-.89,3.78-1.34,5.66l-2-1.2-.5.78,2.36,1.92.09,2.72-3.85-.45-.3.78,2.69,1.14q-1.38,4.95-2.74,9.9l-4.23-1.49-1.42-1.41-1.41-1.42L327,122.49l-1.42-1.4-.53-2.06-.93.48,1.36,1.69,1.39,1.41,1.43,1.4,1.42,1.42,1.41,1.41,2.8,2.82c0,2,.53,4.33-2.71,4.28-5.08-7.89-13.44-12.27-20-18.58l4.08-4.17,1.13-.8ZM334,122.52l-1.4-1.41c-.17-.69-.34-1.38-.5-2.07l-.92.48,1.34,1.66,1.41,1.41,1,.52Zm-12.79-7,1,.56-.91-.62-2.25-2.08-.61,1.11Z"/><path class="cls-20" d="M311.23,115.36c6.55,6.31,14.91,10.69,20,18.58.19,6.36-3,11.16-7.14,15.54l-29.86-8.81,1.19-2.65c8.4,4,17.29,6.34,27.7,9.22l-7.5-6.3c2.91,0,6.09,1.59,8.5-1.42l1.59,1.31.45-.88-2-.41V136.7c1.33-.18,3.3-.18,1.29-2.11-1.06-1-2.69-1.47-4.07-2.17-1.91-5.7-6.47-8.75-11.42-11.4,0-1.77,0-3.54-.07-5.31Z"/><path class="cls-28" d="M294.22,140.67l29.86,8.81-2.67,2.94c-3.07-1-6.16-1.95-9.2-3-6.45-2.32-12.88-4.71-19.32-7.07Z"/><path class="cls-28" d="M290,146.63a5.53,5.53,0,0,0,.23-1.34l1.31-.16,29.82,8.52.65,1.55-.31.24-30.2-7.36h-1.22C290.16,147.6,290.06,147.12,290,146.63Z"/><path class="cls-20" d="M321.33,153.65l-29.82-8.52a7.61,7.61,0,0,0,0-1.35l1.41-1.47c6.44,2.36,12.87,4.75,19.32,7.07,3,1.09,6.13,2,9.2,3A10.16,10.16,0,0,0,321.33,153.65Z"/><path class="cls-28" d="M336.85,104.18V98.61c2.19,1.73,3.79,3,5.4,4.26a4.67,4.67,0,0,1,.1,1.18l-5.53.11Z"/><path class="cls-20" d="M331.22,126.75l4.23,1.49-1.52,1.42-2.8-2.82Z"/><path class="cls-20" d="M336.82,104.16l5.53-.11L341,107Z"/><path class="cls-20" d="M338.19,118.34l-2.69-1.14.3-.78,3.85.45Z"/><path class="cls-20" d="M339.56,114.15l-2.36-1.92.5-.78,2,1.2C339.65,113.15,339.6,113.65,339.56,114.15Z"/><path class="cls-22" d="M451.27,214.56l35.46,21.29L505.09,247l22.78,14.33c-.39,1-.78,1.93-1.18,2.89-15.32-8.94-30.71-17.78-46-26.86-24.85-14.81-49.58-29.83-74.42-44.66Q382.26,178.35,358,164.34c-2.18-1.26-3.08-2.67-2.94-5l1.36-1.65c5.77,3.86,11.42,7.94,17.36,11.53q33.93,20.46,68,40.64a30.67,30.67,0,0,0,5.09,1.91c.55.47,1.1.94,1.66,1.4Z"/><path class="cls-8" d="M448.58,213.18c-.56-.46-1.11-.93-1.66-1.4C448.37,210.88,448.37,210.88,448.58,213.18Z"/><path class="cls-17" d="M304.19,179.19l3-4.31c0-.42.05-.84.08-1.26l2.86-1.47,1.4-2.75,2.62-2.92c.07-.46.12-.92.17-1.38l2.47-.37c.19.19.37.39.55.59-1.46,3.33-2.91,6.67-4.39,10-1,2.28-2.09,4.53-3.13,6.79Z"/><path class="cls-20" d="M291.47,148.08l30.2,7.36a1.62,1.62,0,0,1,.14,1.06l-2,1.5-28.23-7.22Z"/><path class="cls-17" d="M319.79,158l2-1.5c1.9,4.67-1.52,6.62-4.48,8.82-.18-.2-.36-.4-.55-.59.06-.83.12-1.66.19-2.5,0-.47.07-.95.1-1.42Z"/><path class="cls-28" d="M325.6,94.19l2.77,2.88-.05.05-2.88-2.77Z"/><path class="cls-28" d="M332.64,94.21l2.35,2-.93.75-1.53-2.61Z"/><path class="cls-28" d="M332.53,94.33,330.59,94l.22-.64,1.83.89Z"/><path class="cls-28" d="M323.87,94.2l.27-2.75,1.46,2.74-.16.16Z"/><path class="cls-21" d="M355.07,159.35c-.14,2.32.76,3.73,2.94,5q24.25,14,48.31,28.38c24.84,14.83,49.57,29.85,74.42,44.66,15.24,9.08,30.63,17.92,46,26.86-.31,2.1-.17,4.68-3.63,3.48l-10.54-7.89c-1.64-.88-3.3-1.7-4.91-2.64q-19.67-11.44-39.32-22.92l-12.7-7c-4.21-4.12-8.92-7.39-14.85-8.52L409,198.84c-10.3-6.3-20.59-12.63-30.92-18.88-7.57-4.59-15.21-9.07-22.78-13.66-.72-.44-1.14-1.37-1.7-2.07Z"/><path class="cls-17" d="M424.53,291.45l-2.18-3.65c3-5.87,8.63-8.29,13.22-11.59l8.39,9.13c1.79,6.93,7.06,11.39,11.8,16.15.59.59,2.75-.39,4.18-.64,3.11-1,6.28-1.79,9.31-3,9.37-3.67,18.68-7.49,28-11.25,3.73,5,9.05,8.83,10.72,15.25l-1.45,1.71-4.21,1.48C487.21,310.68,472,316.12,457,322c-4.16,1.64-6.87,1.39-9.78-2.07-2.47-2.95-5.63-5.32-8.49-7.94Z"/><path class="cls-18" d="M502.32,305.06l4.21-1.48c.54,2.05-1.45,5.27,2.63,5.67,0,2.84,0,5.68,0,8.52-.87,1.1-2.52,2.22-2.5,3.3.24,14.48.81,29,1.1,43.44.18,8.71,0,17.43,0,26.15l-1.69.37c-.79-2.83-1.91-5.62-2.32-8.5a315.38,315.38,0,0,1-2.86-55.87C501.2,319.45,501.84,312.26,502.32,305.06Z"/><path class="cls-8" d="M424.53,291.45,438.76,312c-3.3,10.64-7.49,20.85-14.57,29.64-.34-1-1-2.11-1-3.12.38-6,.43-12.11,1.55-18a56.6,56.6,0,0,0-.08-22.79C424.26,295.73,424.56,293.55,424.53,291.45Z"/><path class="cls-6" d="M509.17,317.77c0-2.84,0-5.68,0-8.52l.42-1.43c4.48-.39,5.47,2.07,5.56,6.05.27,11.22.88,22.43,1.33,33.65.07,1.88-.29,3.92,2.39,4.31.06,1.84.11,3.68.16,5.52-.38,1-1.18,2.07-1.08,3,.37,3.61-1.62,4.35-4.56,4.21a79.94,79.94,0,0,1-2.51-19.11C510.9,336.25,509.79,327,509.17,317.77Z"/><path class="cls-22" d="M513.38,364.59c2.94.14,4.93-.6,4.56-4.21-.1-1,.7-2,1.08-3,.11,2.82.22,5.65.34,8.47l-4.64,2.42c1.37,5.19,2.64,10.1,4,15,1.49,5.48,1,6.94-3.2,9.84Q514.44,378.84,513.38,364.59Z"/><path class="cls-16" d="M459.94,300.85c-1.43.25-3.59,1.23-4.18.64-4.74-4.76-10-9.22-11.8-16.15.24-6.81.87-13.63.63-20.43-.54-15.45-.19-31-3.85-46.2,5.93,1.13,10.64,4.4,14.85,8.52l.42,9.94,12.28-2.9q19.65,11.46,39.32,22.92c1.61.94,3.27,1.76,4.91,2.64l.13,13.77-1.24,3.15c-6.51-.23-6.85-.14-8.65-6.45-1.37-4.82-4.82-7.3-8.91-7.52a285.08,285.08,0,0,0-30.24,0c-7.12.36-12.76,6.29-12,12.18C452.77,284,454.21,293.17,459.94,300.85Z"/><path class="cls-24" d="M459.94,300.85c-5.73-7.68-7.17-16.81-8.33-25.91-.76-5.89,4.88-11.82,12-12.18a285.08,285.08,0,0,1,30.24,0c4.09.22,7.54,2.7,8.91,7.52,1.8,6.31,2.14,6.22,8.65,6.45L496,283.23c.37,1,.83,2.18,1.29,3.39-9.33,3.76-18.64,7.58-28,11.25C466.22,299.06,463.05,299.87,459.94,300.85Z"/><path class="cls-22" d="M559.36,280.67c7.3,4.07,14.68,8,21.89,12.24,17.52,10.3,35,20.73,52.42,31.12,2,1.2,3.94,2.5,5.91,3.75l-2.89,4.16c-4.92-3.39-9.68-7-14.77-10.11C604,311,586,300.26,568.09,289.48c-3.16-1.9-6.25-3.92-9.37-5.88Z"/><path class="cls-22" d="M518.86,351.83c-2.68-.39-2.32-2.43-2.39-4.31-.45-11.22-1.06-22.43-1.33-33.65-.09-4-1.08-6.44-5.56-6.05.37-1,.74-2,1.12-3l5.58,1.72c1,12.76,2,25.52,2.89,38.29A58.41,58.41,0,0,1,518.86,351.83Z"/><path class="cls-13" d="M512.65,273.6l-.13-13.77,10.54,7.89C521.79,273.58,517.12,273.4,512.65,273.6Z"/><path class="cls-15" d="M510.7,304.84c-.38,1-.75,2-1.12,3l-.42,1.43c-4.08-.4-2.09-3.62-2.63-5.67l1.45-1.71Z"/><path class="cls-14" d="M505.09,247l-18.36-11.17,4.23-1.51L506.67,245Z"/><path class="cls-14" d="M512.76,239.94l-.28-4.22Z"/><path class="cls-14" d="M508,245.81l1.64,1.08Z"/><path class="cls-14" d="M512.82,244.2c0-.46.07-.92.11-1.38a5.19,5.19,0,0,1,.33,1C513.28,243.93,513,244.07,512.82,244.2Z"/><path class="cls-12" d="M493.79,234.21c.37-8.11.12-16.11-3.87-23.53-.49-.91-.18-2.26-.24-3.41,7.58,7.72,8.67,17.66,10.31,28.35Z"/><path class="cls-13" d="M440.74,218.71c3.66,15.2,3.31,30.75,3.85,46.2.24,6.8-.39,13.62-.63,20.43l-8.39-9.13c-4.59,3.3-10.26,5.72-13.22,11.59l-5.48,1.36c-9.74-13.87-16.84-28.54-18-45.79-1.09-16,.65-31.08,10.16-44.53Z"/><path class="cls-23" d="M359.46,596.65v9.91c-1.11.6-1.5,1-1.91,1-18.32.52-14.72,1.17-15.05-14.41a117.65,117.65,0,0,1,.12-11.88c.09-1.14,1.66-2.15,2.55-3.23-.45,5.91-.9,11.81-1.41,18.55h11.49l1.35,0,2.87-.23Z"/><path class="cls-20" d="M361.18,595.09c-.13.48-.26,1-.38,1.45h-.68l-.66.11v-.26c-.62-.62-1.23-1.76-1.87-1.78-2.91-.05-5.82.21-9.74.41l1.84-8.58a4.35,4.35,0,0,0,1.3-.19l4.21.12,2.84-2.66q.65-7.71,1.3-15.42l1.53-4.33,2.65-.1q-.86,11.11-1.71,22.23C361.59,589.09,361.39,592.09,361.18,595.09Z"/><path class="cls-28" d="M360.88,564l-1.53,4.33-2.48-.3c-1.26-1.24-2-4.18-4.48-1.27-3.71.34-4.09,3.2-4.22,5.95-.16,3.19.06,6.4.12,9.6l1.41,4.17L347.86,595c3.92-.2,6.83-.46,9.74-.41.64,0,1.25,1.16,1.87,1.78l-2.87.23a2,2,0,0,0-1.35,0H343.76c.51-6.74,1-12.64,1.41-18.55V564Z"/><path class="cls-26" d="M363.8,534.28a32.35,32.35,0,0,1-.23,5.92c-.2.95-1.52,1.67-2.34,2.49-.05-1-.11-2-.16-3l1-5.66.07-.13,1.44.14Z"/><path class="cls-26" d="M363.45,531.09l5.37,1.3-.17,1.38-4.85.51-.24-.22-1.45-1.15C362.56,532.3,363,531.7,363.45,531.09Z"/><path class="cls-6" d="M362.05,534.05l-1,5.66C360,537.59,357.88,535.27,362.05,534.05Z"/><path class="cls-6" d="M362.11,532.91l1.45,1.15-1.44-.14A1.36,1.36,0,0,1,362.11,532.91Z"/><path class="cls-27" d="M366.69,564c-.31,10.57-.62,21.13-.95,32.34h10.45l.18,1.52H363.72l-.15-2.85c.52-9.41,1-18.83,1.61-28.24C365.24,565.79,366.17,564.9,366.69,564Z"/><path class="cls-13" d="M385.49,571.27l-1.92-8.83c-.22-3.18-.54-6.37-.56-9.56,0-.59,1.24-1.18,1.9-1.78q.76,7.21,1.51,14.44Z"/><path class="cls-6" d="M363.72,597.83h12.65l2.86,8.18c-2.58.12-4.61.28-6.64.29C364.36,606.37,364.18,606.18,363.72,597.83Z"/><path class="cls-7" d="M379.3,577c0,6.53-1.1,8.58-4.69,8.13-5.36-.66-3.65-5-3.93-8.18a31.82,31.82,0,0,1,0-4.88c.17-2.41,1.43-3.85,4-4,2.79-.12,4.42,1.19,4.61,4C379.39,573.72,379.3,575.36,379.3,577Z"/><path class="cls-1" d="M385.49,571.27l.93-5.73,8.33,1.16-3,6.91L389,577.76l-3.36-1.62C385.56,574.52,385.52,572.89,385.49,571.27Z"/><path class="cls-5" d="M407.85,599.26l-15.92,1.42c.11-2-.25-4.08,2.86-4.4,1.06-.11,2-1.78,2.93-2.74l4.26.25a32.75,32.75,0,0,0,2.29,2.55C405.4,597.38,406.65,598.29,407.85,599.26Z"/><path class="cls-7" d="M402,593.79l-4.26-.25.93-11.58,3.28-.53C403.09,585.55,404.92,589.66,402,593.79Z"/><path class="cls-23" d="M402,593.79c2.94-4.13,1.11-8.24-.05-12.36,3.24-1.57,4.95-.18,5.45,3,.75,4.86,1.33,9.75,2,14.62l-1.51.19c-1.2-1-2.45-1.88-3.58-2.92A32.75,32.75,0,0,1,402,593.79Z"/><path class="cls-20" d="M298.18,177.79c1.08-1.38,2.17-2.16,3.3,0Z"/><path class="cls-12" d="M218.18,308.93,217.91,288l.3-15.41,2.72-.11.06,36.64Z"/><path class="cls-11" d="M220.93,272.5l-2.72.11-4.47-6.36c.16-.43.25-1.2.49-1.25,5.56-1.13,11.15-2.49,16.56.59-1,1.45-1.88,2.94-2.94,4.33a36.73,36.73,0,0,1-2.57,2.73Z"/><path class="cls-22" d="M278.73,167.68c-.8-1.88,3.29-3.87-.13-5.7l1.86-4,2.71-2.75,3-4.29,2.61-2.79,1.45-.1h1.22l.09,2.7c0,.94,0,1.87,0,2.8l-2.86,1.48-2.79,2.74c0,.5,0,1,0,1.5l-1.4,2.79-2.69,1.42-.15,2.84c-.47.49-.95,1-1.43,1.46Z"/><path class="cls-20" d="M280.18,167.81c.48-.48,1-1,1.43-1.46l12.82,4.27-.05.07Z"/><path class="cls-20" d="M307.26,173.62c0,.42-.06.84-.08,1.26-4.46-.8-9.23-.67-12.8-4.19l.05-.07Z"/><path class="cls-17" d="M280.46,158l-1.86,4-11.09,7.21a6.09,6.09,0,0,0-1.28.1l-2.44-1c.92-1.07,1.74-2.92,2.8-3.07,4.47-.64,7.12-2.9,8-7.29h0Z"/><path class="cls-24" d="M213.74,266.25l4.47,6.36-.3,15.41c-7.27-6.43-9.81-14.77-9.73-24.17l1.41-.35C209.58,266.52,211.18,267.11,213.74,266.25Z"/><path class="cls-11" d="M209.59,263.5l-1.41.35c0-.41.06-.82.1-1.23Z"/><path class="cls-27" d="M269.22,153.63a3.16,3.16,0,0,0-.32,1.31l-1.38,1.57a1.34,1.34,0,0,0-.14.94l-3,1.73-2.51.3a1.84,1.84,0,0,0-1.34.18l-5.77,0a1.67,1.67,0,0,0-1.33-.14l-2.64-.28L249.16,158a2.35,2.35,0,0,0-1.14-.22l-3.09-4.13c0-1.36,0-2.73,0-4.1l25.3.15.11,2.49Z"/><path class="cls-17" d="M240.52,128.22c-5.09-2.45-2.32-7.07-2.81-10.73-.16-1.16.89-2.49,1.67-4.45H227.17l3.38-5.47a81.82,81.82,0,0,0,8.63-2.56c4.84-2,10.07-1.08,13.14,2.36L244,116c-1.19.55-3.36,1-3.42,1.64C240.28,121.15,240.49,124.69,240.52,128.22Z"/><path class="cls-28" d="M324.1,136.7v2.82c-2.41,3-5.59,1.4-8.5,1.42h0l-4.26-1.43,0,0c-2.23-3.92-5.94-4.41-9.92-4.26l0,0,.06-2.71c5.35,1.62,5-4.73,8.38-5.94.49.53,1,1.06,1.46,1.58l0,0,2.86,1.44,0,0,2.85,1.43h0l1.43,1.43,0,0c.27,3.59,3.11,3.74,5.67,4.26Z"/><path class="cls-28" d="M315.61,140.94l7.5,6.3c-10.41-2.88-19.3-5.22-27.7-9.22,1.37-1.57.38-5.82,4.65-4.09l1.43,1.37,0,0,9.92,4.26,0,0,4.26,1.43Z"/><path class="cls-17" d="M270.24,149.71l-25.3-.15c1.63-1,3.17-2.6,4.89-2.84,5.44-.74,10.95-1,16.45-1.36C269.24,145.18,270.42,146.9,270.24,149.71Z"/><path class="cls-19" d="M240.52,128.22c0-3.53-.24-7.07.07-10.57.06-.64,2.23-1.09,3.42-1.64l.41-.17c.08,3.67.17,7.35.25,11l.05.56-1.44,2.1,0-.15-2.45-.37A.63.63,0,0,0,240.52,128.22Z"/><path class="cls-19" d="M283.08,111.62l-20.39-3.32C267.74,104.24,270.46,104.72,283.08,111.62Z"/><path class="cls-19" d="M271.54,115.47c4.06,4.26,4.22,8.25.67,14.05C269.14,124.81,269.75,120.39,271.54,115.47Z"/><path class="cls-28" d="M309.9,121c5,2.65,9.51,5.7,11.42,11.4l-.07.07-2.81,0,0,0L317,131h0l-2.85-1.43,0,0-2.86-1.44,0,0c-.49-.93-1-1.86-1.48-2.8C309.9,124,309.9,122.49,309.9,121Z"/><path class="cls-17" d="M244.67,126.87c-.08-3.68-.17-7.36-.25-11C247.88,119.49,247.94,122.22,244.67,126.87Z"/><path class="cls-17" d="M244.93,153.66l3.09,4.13C243.14,157.64,242.87,157.28,244.93,153.66Z"/><path class="cls-17" d="M286.19,151l-3,4.29C283.08,153.06,282.67,150.63,286.19,151Z"/><path class="cls-17" d="M240.87,129l2.45.37L241.9,132Z"/><path class="cls-19" d="M298.74,125.47c-.14,1.26-.29,2.52-.43,3.78l-1-.27c.42-1.22.83-2.44,1.24-3.66Z"/><path class="cls-20" d="M309.91,125.43c.49.94,1,1.87,1.48,2.8-.49-.52-1-1-1.46-1.58A9.9,9.9,0,0,1,309.91,125.43Z"/><path class="cls-17" d="M264.37,159.18l3-1.73Z"/><path class="cls-20" d="M301.49,135.3l-1.43-1.37,1.49-1.34Z"/><path class="cls-17" d="M243.28,129.53l1.44-2.1Z"/><path class="cls-17" d="M260.52,159.66a1.84,1.84,0,0,1,1.34-.18Z"/><path class="cls-17" d="M253.42,159.54a1.67,1.67,0,0,1,1.33.14Z"/><path class="cls-17" d="M249.16,158l1.62,1.25Z"/><path class="cls-17" d="M274.61,157.92l-.73-.72c.16,0,.38,0,.46.12a2.19,2.19,0,0,1,.27.6Z"/><path class="cls-17" d="M267.52,156.51l1.38-1.57Z"/><path class="cls-17" d="M269.22,153.63l1.13-1.43Z"/><path class="cls-17" d="M290.25,148.08l-1.45.1,1.17-1.55C290.06,147.12,290.16,147.6,290.25,148.08Z"/><path class="cls-17" d="M291.48,143.78a7.61,7.61,0,0,1,0,1.35l-1.31.16C290.63,144.79,291.06,144.29,291.48,143.78Z"/><path class="cls-27" d="M444.44,168.35H468c-1,7.15-3.22,9.12-10,9.45C449.12,178.24,446.43,176.5,444.44,168.35Z"/><path class="cls-19" d="M440.24,148.65c-.37-3.84-.86-7.67-1-11.51,0-.54,1.71-1.15,2.91-1.9,2.8,4.9,3.21,9.24.15,13.5Z"/><path class="cls-19" d="M467.54,137.12l3.14-1.54c3.05,1.62,2.87,8.66-.91,14.43C469,145.25,468.3,141.53,467.54,137.12Z"/><path class="cls-20" d="M323.87,94.2l1.57.15,2.88,2.77c0,1.39.06,2.78.08,4.18l-.1.09c-2,0-4.33-.55-4.14,2.74l-.11.09-4.39-3.09L321,99.74c2.42-.63,1.95-1.61.32-2.72Z"/><path class="cls-20" d="M318.34,103.92l1.56,3-.07.08L317,107Z"/><path class="cls-28" d="M321.33,97c1.63,1.11,2.1,2.09-.32,2.72Z"/><path class="cls-20" d="M315.6,109.69l.84.7-1.13.8Z"/><path class="cls-20" d="M321.25,115.52l-2.8-1,.61-1.11,2.25,2.08Z"/><path class="cls-20" d="M332.56,121.18l-1.34-1.66.92-.48c.16.69.33,1.38.5,2.07Z"/><path class="cls-20" d="M325.48,121.2l-1.36-1.69.93-.48.53,2.06Z"/><path class="cls-20" d="M328.31,108.46,325.52,107h0l2.86,1.39Z"/><path class="cls-20" d="M331.21,104.14l1.34,1.65-.91.48c-.16-.69-.33-1.38-.5-2.07Z"/><path class="cls-20" d="M322.72,109.79l1.35,1.66-.92.48c-.16-.69-.33-1.38-.49-2.07Z"/><path class="cls-20" d="M324.16,104.13l1.37,2.86h0l-1.47-2.78Z"/><path class="cls-20" d="M328.39,108.38l.91.63-1-.55Z"/><path class="cls-20" d="M321.32,108.36c.47.48.93,1,1.4,1.43l-.06.07-1.44-1.4Z"/><path class="cls-20" d="M319.9,107l1.42,1.4-.1.1L319.83,107Z"/><path class="cls-20" d="M331.13,126.84l-1.41-1.41.08-.09,1.42,1.41Z"/><path class="cls-20" d="M329.82,102.69l1.39,1.45-.07.06-1.44-1.39Z"/><path class="cls-20" d="M329.7,102.81l-1.4-1.42.1-.09,1.42,1.39Z"/><path class="cls-20" d="M329.72,125.43,328.3,124l.09-.09,1.41,1.42Z"/><path class="cls-20" d="M334,122.52l.93.59-1-.52Z"/><path class="cls-20" d="M328.3,124l-1.43-1.4.13-.12,1.39,1.43Z"/><path class="cls-20" d="M332.64,121.11l1.4,1.41-.07.07-1.41-1.41Z"/><path class="cls-20" d="M325.58,121.09l1.42,1.4-.13.12-1.39-1.41Z"/><path class="cls-20" d="M321.31,115.46l.91.62-1-.56Z"/><path class="cls-28" d="M321.32,132.42c1.38.7,3,1.14,4.07,2.17,2,1.93,0,1.93-1.29,2.11h0l-2.86-4.22Z"/><path class="cls-28" d="M324.1,139.54l2,.41-.45.88-1.59-1.31Z"/><path class="cls-28" d="M285.9,157.8l2.79-2.74L317,162.23c-.07.84-.13,1.67-.19,2.5l-2.47.37Z"/><path class="cls-28" d="M307.26,173.62l-12.83-3-12.82-4.27.15-2.84c2.25.53,4.55.94,6.76,1.63,7.22,2.28,14.4,4.66,21.6,7Z"/><path class="cls-28" d="M284.45,162.09l1.4-2.79,28.29,7.18-2.62,2.92Z"/><path class="cls-20" d="M284.45,162.09l27.07,7.31-1.4,2.75c-7.2-2.35-14.38-4.73-21.6-7-2.21-.69-4.51-1.1-6.76-1.63Z"/><path class="cls-20" d="M314.14,166.48l-28.29-7.18c0-.5,0-1,0-1.5l28.41,7.3C314.26,165.56,314.21,166,314.14,166.48Z"/><path class="cls-28" d="M291.55,153.58c0-.93,0-1.86,0-2.8L319.79,158l-2.72,2.81Z"/><path class="cls-20" d="M291.55,153.58l25.52,7.23c0,.47-.07.95-.1,1.42l-28.28-7.17Z"/><path class="cls-14" d="M468.29,234.27,456,237.17l-.42-9.94Z"/><path class="cls-17" d="M355.25,596.58a2,2,0,0,1,1.35,0Z"/><path class="cls-23" d="M356.87,568l2.48.3q-.66,7.71-1.3,15.42l-2.84,2.66-4.21-.12c0-1.93.22-4-2.71-4-.06-3.2-.28-6.41-.12-9.6.13-2.75.51-5.61,4.22-5.95Z"/><path class="cls-17" d="M348.29,582.27c2.93-.06,2.69,2.05,2.71,4a4.35,4.35,0,0,1-1.3.19Z"/><path class="cls-17" d="M355.21,586.37l2.84-2.66Z"/><path class="cls-17" d="M356.87,568l-4.48-1.27C354.83,563.81,355.61,566.75,356.87,568Z"/><path class="cls-20" d="M311.39,139.54l-9.92-4.26C305.45,135.13,309.16,135.62,311.39,139.54Z"/><path class="cls-20" d="M321.25,132.49l2.86,4.22c-2.56-.52-5.4-.67-5.67-4.26Z"/><path class="cls-20" d="M315.63,141l-4.26-1.43Z"/><path class="cls-20" d="M311.36,128.2l2.86,1.44Z"/><path class="cls-20" d="M314.2,129.62l2.85,1.43Z"/><path class="cls-20" d="M317,131l1.43,1.43Z"/></g></g></svg>