<svg xmlns="http://www.w3.org/2000/svg" viewBox="0 0 79.52 167.41"><defs><style>.cls-1{fill:#00ac7c;}</style></defs><g id="Layer_2" data-name="Layer 2"><g id="Clothes_line" data-name="Clothes line"><path class="cls-1" d="M67.37,83.61A22.19,22.19,0,0,0,60.92,68a25.13,25.13,0,0,0-13-7.64c-.06-1.16-.1-2.46-.1-3.92V1.67q11.94,0,16.93,1.45a17.08,17.08,0,0,1,9,5.5q3.09,3.86,4.54,11.31l1.24-.1L78.55,0H5.85l-1,19.83,1.24.1a29.79,29.79,0,0,1,3.7-10.2A14.42,14.42,0,0,1,16.51,4q4.06-1.66,12.34-2.1c2.58-.14,5-.21,7.25-.21v54.8c0,1.52,0,2.87-.11,4.06A25.45,25.45,0,0,0,23.47,68a21.88,21.88,0,0,0-4.86,23.7c.07.17.16.34.23.51H0v1.23a17.44,17.44,0,0,1,5,.87,8.38,8.38,0,0,1,3.36,2.25,8.66,8.66,0,0,1,2.31,4.35,40.43,40.43,0,0,1,.59,8.17v32.62a72.88,72.88,0,0,0,.33,8.54A16.77,16.77,0,0,0,17.19,161q7.2,6.39,22.41,6.39,14.57,0,22.41-6.77a14.54,14.54,0,0,0,4.59-6.53q1.16-3.57,1.16-11.09V109.11a39.38,39.38,0,0,1,.61-8.14,9.22,9.22,0,0,1,2.29-4.38,8.91,8.91,0,0,1,3.41-2.25,17.32,17.32,0,0,1,5-.87V92.24H65.61A21.62,21.62,0,0,0,67.37,83.61Zm-2.43,19.33a18.72,18.72,0,0,1,.61,5v31.17q0,8.22-.21,10.42A18,18,0,0,1,64,155.16a12.2,12.2,0,0,1-3.09,4.08A23.91,23.91,0,0,1,52.47,164a33.77,33.77,0,0,1-10.67,1.69,21.11,21.11,0,0,1-9.53-1.91,15.8,15.8,0,0,1-6.37-6.15,16.8,16.8,0,0,1-2.28-6.1,70.65,70.65,0,0,1-.57-10.72V110.35a50.93,50.93,0,0,1,.57-9.24A8.4,8.4,0,0,1,24,99.76a24.68,24.68,0,0,0,18.23,7.44,24.63,24.63,0,0,0,19-8.27c.6-.66,1.14-1.34,1.66-2C63.87,98,64.56,101.34,64.94,102.94ZM56.3,92.36c-.12.44-.26.84-.4,1.25a23.88,23.88,0,0,1-3,6.29,14.89,14.89,0,0,1-4.73,4.51A11,11,0,0,1,42.55,106Q35.73,106,31,98.77a23.26,23.26,0,0,1-2.15-4.22c-.3-.75-.56-1.52-.79-2.31a32.83,32.83,0,0,1-1.26-9.3,30.35,30.35,0,0,1,1.47-9.6c.21-.63.45-1.24.7-1.84a23.48,23.48,0,0,1,2.29-4.18,16.81,16.81,0,0,1,4.54-4.59,10.75,10.75,0,0,1,5.94-1.79,11.77,11.77,0,0,1,6.38,1.83A15.85,15.85,0,0,1,52.54,67,24,24,0,0,1,55,71.53c.26.59.49,1.19.72,1.81.15.45.32.89.46,1.36a30.07,30.07,0,0,1,1.37,8.89,31.87,31.87,0,0,1-1.26,8.65Z"/></g></g></svg>